<?xml version="1.0" encoding="UTF-8"?>
<svg xmlns="http://www.w3.org/2000/svg" viewBox="0 0 1020.0 983.0" role="img" aria-label="Alocare AI">
  <g transform="translate(0.000000,983.000000) scale(0.100000,-0.100000)"
fill="#000828" stroke="none">
<path d="M3778 9613 c12 -2 30 -2 40 0 9 3 -1 5 -23 4 -22 0 -30 -2 -17 -4z
M2939 9273 l-24 -28 28 24 c25 23 32 31 24 31 -2 0 -14 -12 -28 -27z M2789
9123 l-24 -28 28 24 c25 23 32 31 24 31 -2 0 -14 -12 -28 -27z M6638 8013 c12
-2 32 -2 45 0 12 2 2 4 -23 4 -25 0 -35 -2 -22 -4z M7435 7860 c21 -22 41 -40
44 -40 3 0 -13 18 -34 40 -21 22 -41 40 -44 40 -3 0 13 -18 34 -40z M3835
7750 c17 -9 15 -10 -12 -7 -19 2 -29 -1 -26 -6 4 -6 -3 -8 -15 -5 -14 4 -20 2
-15 -5 4 -6 0 -8 -10 -4 -10 4 -17 1 -17 -5 0 -6 -3 -8 -7 -5 -3 4 -12 -1 -20
-11 -8 -9 -12 -12 -10 -7 3 6 -79 -73 -181 -175 l-187 -186 170 176 170 175
-177 -174 c-97 -96 -175 -178 -173 -182 3 -3 -4 -14 -15 -24 -11 -10 -20 -14
-20 -9 0 4 -27 -18 -60 -51 -32 -32 -57 -62 -55 -65 2 -4 -7 -18 -20 -30 -14
-13 -25 -19 -25 -15 0 5 -29 -19 -65 -55 -35 -35 -62 -66 -60 -70 2 -4 -74
-84 -170 -179 -96 -94 -169 -169 -162 -166 7 4 4 0 -5 -8 -10 -8 -15 -17 -11
-20 3 -4 1 -7 -6 -7 -7 0 -9 -4 -6 -10 3 -5 2 -10 -3 -10 -5 0 -7 -12 -5 -27
3 -17 1 -23 -4 -16 -4 6 -8 -501 -8 -1128 l0 -1139 497 0 497 0 55 51 c31 28
54 55 51 59 -3 5 7 17 22 28 16 11 71 68 123 126 102 114 143 141 193 132 18
-3 35 -5 39 -3 3 1 17 -11 29 -28 13 -16 26 -32 29 -35 3 -3 6 -10 7 -16 3
-16 104 -178 117 -186 6 -4 7 -8 3 -8 -4 0 -3 -9 3 -20 6 -11 15 -18 19 -16 4
3 13 -6 20 -20 9 -20 9 -24 -1 -19 -7 4 -6 1 2 -7 8 -7 16 -18 17 -25 4 -17
75 -127 85 -131 4 -2 6 -8 3 -12 -3 -5 4 -14 15 -20 13 -7 19 -18 16 -26 -3
-8 3 -23 14 -34 11 -11 19 -22 18 -25 -2 -2 5 -13 14 -25 10 -11 15 -20 12
-20 -4 0 -1 -7 7 -16 14 -17 435 1087 422 1110 -3 6 -2 8 2 4 9 -9 117 271
109 284 -3 4 0 8 6 8 7 0 10 6 7 14 -3 8 -3 16 1 18 12 5 52 109 46 119 -3 5
0 9 6 9 7 0 10 7 6 15 -3 8 -1 15 5 15 6 0 7 5 4 10 -3 6 -2 10 2 10 5 0 13
10 18 23 36 82 144 62 182 -33 11 -30 26 -60 31 -66 6 -7 9 -14 7 -16 -3 -2
29 -94 71 -204 41 -109 93 -246 114 -304 21 -58 57 -152 79 -210 22 -58 97
-258 166 -445 70 -187 130 -346 134 -353 5 -9 22 4 57 45 27 32 40 51 29 43
-11 -8 1 6 26 30 25 25 63 67 84 93 65 82 26 77 647 77 l553 0 -2 1632 c-2
1222 -5 1633 -14 1639 -6 4 -8 12 -4 19 6 9 4 11 -5 5 -10 -6 -12 -4 -7 9 4
11 3 15 -4 11 -6 -4 -9 1 -7 11 2 11 -2 18 -10 16 -7 -1 -22 14 -33 33 -12 19
-23 35 -26 35 -2 0 -1 -6 3 -12 4 -7 -5 0 -19 15 -20 21 -33 27 -48 22 -14 -5
-19 -3 -15 4 5 7 -464 10 -1596 11 -882 0 -1634 3 -1673 5 -52 4 -65 3 -50 -5z
m-545 -463 c0 -1 -26 -27 -57 -57 l-58 -55 55 58 c50 53 60 62 60 54z m-160
-160 c0 -1 -28 -29 -62 -62 l-63 -60 60 63 c55 58 65 67 65 59z m3473 -201
c-3 -5 0 -7 7 -4 23 7 70 -47 70 -82 0 -18 -4 -29 -10 -25 -5 3 -10 0 -10 -8
0 -55 72 -52 -1299 -57 l-1256 -5 -27 27 c-14 15 -28 25 -30 23 -1 -2 -2 20
-2 48 1 37 6 52 15 52 8 0 14 7 14 15 0 9 8 14 19 12 10 -2 16 0 13 5 -3 4
559 8 1248 8 719 0 1251 -4 1248 -9z m-2566 -103 c-3 -10 -5 -2 -5 17 0 19 2
27 5 18 2 -10 2 -26 0 -35z m2560 -616 c-7 -5 -2 -7 11 -4 13 3 22 3 19 0 -7
-7 26 -41 35 -36 4 2 5 -4 1 -13 -4 -12 -3 -15 5 -10 8 5 12 -3 12 -24 0 -20
-4 -29 -11 -24 -6 4 -9 -1 -7 -12 1 -11 -2 -20 -7 -22 -6 -2 -17 -10 -26 -18
-17 -16 -3285 -22 -3275 -6 2 4 -2 16 -10 27 -8 10 -14 15 -14 9 0 -5 -5 -2
-10 6 -5 8 -9 26 -9 40 1 23 2 23 9 -5 l8 -30 -1 35 c-2 36 33 80 64 80 10 0
11 2 2 8 -6 4 715 7 1602 7 887 0 1608 -4 1602 -8z m-854 -194 c-430 -2 -1136
-2 -1570 0 -433 1 -81 2 782 2 864 0 1218 -1 788 -2z m-2360 -523 c-35 -14
-27 -20 11 -9 33 9 1170 7 1211 -2 33 -8 45 -19 38 -36 -4 -9 -2 -14 3 -10 6
3 10 -10 9 -33 0 -21 -4 -36 -9 -33 -5 3 -6 0 -4 -8 7 -20 -21 -49 -40 -42 -8
4 -13 2 -10 -3 9 -14 -1233 -7 -1246 7 -8 9 -7 10 4 4 8 -5 3 3 -12 18 -19 17
-28 35 -27 54 l1 28 8 -30 8 -30 1 36 c0 20 8 42 16 49 9 7 13 15 10 18 -8 9
16 32 34 31 11 0 9 -3 -6 -9z m3241 -11 c-3 -6 2 -9 12 -7 11 2 19 -3 20 -12
3 -36 5 -41 14 -35 25 15 3 -53 -26 -82 -17 -17 -30 -33 -29 -35 2 -2 -160 -3
-360 -3 -200 0 -361 4 -358 8 3 5 -3 7 -13 5 -11 -2 -19 3 -19 12 -1 8 -6 14
-13 13 -7 -2 -9 4 -5 14 4 9 2 14 -3 11 -19 -12 -9 70 12 89 11 10 13 14 4 8
-13 -9 -13 -8 -2 7 12 15 47 17 387 15 220 -1 371 2 367 7 -3 5 0 6 7 2 6 -4
9 -12 5 -17z m-3161 -186 c-13 -2 -33 -2 -45 0 -13 2 -3 4 22 4 25 0 35 -2 23
-4z m135 0 c-21 -2 -55 -2 -75 0 -21 2 -4 4 37 4 41 0 58 -2 38 -4z m280 0
c-10 -2 -28 -2 -40 0 -13 2 -5 4 17 4 22 1 32 -1 23 -4z m270 0 c-27 -2 -69
-2 -95 0 -27 2 -5 3 47 3 52 0 74 -1 48 -3z m314 0 c-40 -2 -103 -2 -140 0
-37 2 -4 3 73 3 77 0 107 -2 67 -3z m1565 0 c-20 -2 -52 -2 -70 0 -17 2 0 4
38 4 39 0 53 -2 32 -4z m551 0 c-10 -2 -28 -2 -40 0 -13 2 -5 4 17 4 22 1 32
-1 23 -4z M7605 7140 c0 -212 1 -298 2 -192 2 105 2 279 0 385 -1 105 -2 19
-2 -193z M9530 7497 c0 -2 15 -16 33 -33 l32 -29 -29 33 c-28 30 -36 37 -36
29z M9713 7095 c0 -38 2 -53 4 -32 2 20 2 52 0 70 -2 17 -4 1 -4 -38z M8764
6828 c-4 -7 -4 -10 1 -6 4 4 16 -3 27 -15 l19 -22 -17 28 c-19 31 -20 32 -30
15z M8855 6730 c21 -22 41 -40 44 -40 3 0 -13 18 -34 40 -21 22 -41 40 -44 40
-3 0 13 -18 34 -40z M9564 6738 l-29 -33 33 29 c30 28 37 36 29 36 -2 0 -16
-15 -33 -32z M7603 6635 c0 -27 2 -38 4 -22 2 15 2 37 0 50 -2 12 -4 0 -4 -28z
M9198 6583 c12 -2 30 -2 40 0 9 3 -1 5 -23 4 -22 0 -30 -2 -17 -4z M7693 6573
c9 -2 25 -2 35 0 9 3 1 5 -18 5 -19 0 -27 -2 -17 -5z M1023 6553 c9 -2 23 -2
30 0 6 3 -1 5 -18 5 -16 0 -22 -2 -12 -5z M8060 6343 l-95 -98 98 95 c90 88
102 100 94 100 -1 0 -45 -44 -97 -97z M385 6139 c-9 -17 -15 -33 -13 -35 3 -2
12 12 21 31 21 43 13 47 -8 4z M7600 6110 c0 -35 2 -61 4 -59 8 7 10 108 3
115 -4 4 -7 -21 -7 -56z M7603 5880 c0 -47 2 -66 4 -42 2 23 2 61 0 85 -2 23
-4 4 -4 -43z M9423 5863 c9 -2 23 -2 30 0 6 3 -1 5 -18 5 -16 0 -22 -2 -12 -5z
M9513 5863 c9 -2 25 -2 35 0 9 3 1 5 -18 5 -19 0 -27 -2 -17 -5z M9125 5718
l-40 -43 43 40 c39 36 47 45 39 45 -2 0 -21 -19 -42 -42z M9840 5715 c19 -19
36 -35 39 -35 3 0 -10 16 -29 35 -19 19 -36 35 -39 35 -3 0 10 -16 29 -35z
M7603 5675 c0 -38 2 -53 4 -32 2 20 2 52 0 70 -2 17 -4 1 -4 -38z M7603 5515
c0 -27 2 -38 4 -22 2 15 2 37 0 50 -2 12 -4 0 -4 -28z M295 4425 c0 -583 1
-823 2 -533 2 289 2 766 0 1060 -1 293 -2 56 -2 -527z M8180 5283 l-175 -178
178 175 c97 96 177 176 177 177 0 8 -18 -10 -180 -174z M7604 5240 c0 -102 2
-143 3 -92 2 50 2 134 0 185 -1 50 -3 9 -3 -93z M9993 5345 c0 -33 2 -45 4
-27 2 18 2 45 0 60 -2 15 -4 0 -4 -33z M7890 4993 l-55 -58 58 55 c53 50 62
60 54 60 -1 0 -27 -26 -57 -57z M7603 4965 c0 -33 2 -45 4 -27 2 18 2 45 0 60
-2 15 -4 0 -4 -33z M9115 4980 c21 -22 41 -40 44 -40 3 0 -13 18 -34 40 -21
22 -41 40 -44 40 -3 0 13 -18 34 -40z M5215 4858 c-17 -46 -29 -89 -29 -95 1
-7 -3 -13 -8 -13 -6 0 -8 -7 -4 -15 3 -8 1 -15 -3 -15 -11 0 -41 -86 -33 -94
3 -3 0 -6 -7 -6 -8 0 -10 -7 -6 -21 5 -14 4 -19 -4 -15 -7 5 -9 1 -5 -8 3 -9
1 -16 -6 -16 -6 0 -8 -4 -5 -10 3 -5 1 -10 -5 -10 -7 0 -10 -7 -6 -15 3 -8 2
-15 -2 -15 -9 0 -45 -95 -45 -117 0 -7 -5 -13 -10 -13 -5 0 -7 -7 -3 -15 3 -8
1 -15 -4 -15 -5 0 -6 -7 -3 -17 5 -12 3 -14 -7 -8 -10 6 -12 4 -7 -8 3 -10 3
-17 -1 -17 -9 0 -48 -110 -44 -122 1 -5 -3 -8 -9 -8 -6 0 -9 -7 -5 -15 3 -8 1
-15 -5 -15 -6 0 -9 -7 -5 -15 3 -8 1 -15 -4 -15 -5 0 -6 -7 -3 -17 5 -12 3
-14 -7 -8 -10 6 -12 4 -7 -8 4 -10 2 -17 -4 -17 -6 0 -9 -7 -5 -15 3 -8 1 -15
-5 -15 -6 0 -7 -4 -4 -10 3 -5 1 -10 -5 -10 -7 0 -10 -6 -8 -12 3 -7 -2 -19
-9 -27 -8 -7 -12 -19 -9 -27 3 -7 0 -14 -6 -16 -6 -2 -10 -16 -10 -31 0 -15
-4 -25 -8 -22 -6 4 -34 -66 -35 -90 0 -5 -4 -13 -8 -16 -4 -3 -9 -16 -10 -27
-1 -12 -5 -22 -10 -22 -5 0 -7 -7 -3 -15 3 -8 1 -15 -4 -15 -5 0 -6 -7 -3 -17
5 -12 3 -14 -7 -8 -10 6 -12 4 -7 -8 4 -10 2 -17 -4 -17 -6 0 -9 -7 -5 -15 3
-8 1 -15 -5 -15 -6 0 -7 -4 -4 -10 3 -5 1 -10 -5 -10 -7 0 -10 -7 -6 -15 3 -8
1 -15 -4 -15 -5 0 -7 -7 -4 -15 4 -8 1 -15 -6 -15 -6 0 -8 -4 -5 -10 3 -5 1
-10 -5 -10 -7 0 -10 -7 -6 -15 3 -8 1 -15 -5 -15 -6 0 -9 -7 -5 -15 3 -8 1
-15 -5 -15 -6 0 -7 -4 -4 -10 3 -5 1 -10 -5 -10 -7 0 -10 -5 -8 -12 5 -13 -43
-58 -61 -58 -6 0 -11 -4 -11 -8 0 -14 -42 -11 -57 4 -8 8 -18 12 -22 9 -5 -2
-20 18 -35 45 -15 28 -31 50 -35 50 -4 0 -8 6 -8 13 0 20 -100 187 -107 180
-4 -4 -4 0 -1 9 4 11 -1 20 -14 27 -11 6 -18 17 -15 24 2 7 -6 24 -18 37 -13
14 -22 26 -20 27 7 8 1 23 -8 18 -6 -3 -7 1 -4 9 4 9 -1 18 -10 22 -9 3 -13
10 -10 15 3 5 1 9 -4 9 -5 0 -9 6 -9 13 -1 22 -49 97 -58 90 -4 -5 -5 -2 0 6
5 9 0 20 -16 33 -13 11 -18 17 -11 13 11 -6 12 -3 3 14 -7 11 -17 21 -23 21
-6 0 -9 3 -5 6 8 9 -21 64 -34 64 -6 0 -7 5 -4 10 3 6 2 10 -4 10 -6 0 -15 10
-22 21 -8 16 -8 20 1 14 9 -6 9 -2 1 14 -7 11 -16 21 -22 21 -6 0 -7 5 -4 10
3 6 1 10 -5 10 -6 0 -8 6 -4 13 4 6 -9 -4 -29 -22 -41 -39 -50 -56 -14 -25 13
10 -3 -5 -35 -34 -32 -30 -56 -57 -53 -62 3 -4 -3 -14 -13 -21 -16 -13 -16
-12 -2 6 15 20 14 20 -8 1 -12 -11 -20 -21 -18 -24 6 -5 -52 -55 -81 -71 -16
-8 -180 -11 -580 -11 l-558 0 0 -1134 c0 -624 4 -1129 8 -1123 5 7 7 1 4 -15
-2 -17 0 -25 6 -21 6 4 8 0 4 -10 -3 -10 -2 -17 4 -17 6 0 7 -5 4 -10 -3 -6
-1 -10 5 -10 6 0 9 -4 6 -8 -7 -12 65 -78 82 -74 8 2 12 0 9 -5 -3 -4 5 -9 16
-10 68 -4 112 -17 87 -24 -14 -4 805 -6 1820 -6 l1845 2 -1805 5 -1805 5 1842
0 c1013 0 1835 3 1825 7 -9 5 3 6 28 3 29 -3 38 -2 25 3 -16 8 -14 10 15 15
18 4 35 5 38 2 3 -3 -3 -5 -13 -5 -10 0 -16 -3 -12 -6 10 -11 108 27 100 39
-4 6 0 8 10 4 20 -7 49 2 42 13 -7 11 24 22 37 13 7 -4 8 -1 3 7 -6 10 -4 12
9 7 11 -5 15 -3 10 5 -5 8 -2 9 10 5 10 -4 15 -3 11 3 -7 11 32 33 45 25 5 -3
12 0 16 6 5 8 3 9 -6 4 -9 -6 -11 -4 -6 4 5 7 14 10 22 7 7 -3 16 0 20 6 4 7
3 8 -4 4 -25 -15 -11 1 21 24 26 20 30 20 18 4 -15 -21 12 7 78 81 24 28 38
41 30 30 -13 -18 -13 -19 3 -6 10 7 15 17 12 23 -3 5 12 25 33 45 21 20 31 33
23 29 -9 -5 -9 -2 2 7 10 8 15 17 11 20 -3 4 -1 7 6 7 7 0 9 5 6 10 -3 6 -1
10 5 10 6 0 8 5 5 10 -3 5 -1 10 5 10 6 0 8 5 5 10 -3 6 -1 10 5 10 6 0 8 4 5
10 -3 5 -1 10 5 10 6 0 9 4 6 9 -9 14 5 42 16 35 6 -4 7 2 3 16 -5 14 -3 20 3
16 6 -4 8 2 4 16 -4 16 -2 19 8 13 10 -6 12 -4 7 9 -9 22 2 68 13 61 5 -3 6
12 4 32 -4 27 -3 34 4 24 8 -11 9 -2 6 30 -3 24 -2 39 3 32 4 -6 8 362 8 818
l0 829 -490 0 -491 0 -39 -41 c-22 -23 -33 -38 -25 -34 8 5 -10 -15 -40 -44
-30 -29 -48 -49 -40 -45 8 4 -12 -19 -45 -50 -33 -32 -53 -54 -45 -50 8 4 -10
-16 -40 -45 -30 -29 -48 -49 -40 -45 8 4 -8 -14 -36 -42 -28 -27 -39 -40 -25
-29 l26 20 -20 -24 c-53 -62 -153 -77 -205 -31 -9 8 -15 18 -13 23 2 4 0 7 -6
7 -6 0 -7 7 -4 17 5 12 3 14 -7 8 -10 -6 -12 -4 -7 8 3 10 2 17 -3 17 -5 0 -7
7 -4 15 4 8 1 15 -5 15 -6 0 -8 7 -4 17 5 11 3 14 -6 8 -10 -6 -11 -2 -6 15 5
15 3 20 -3 16 -12 -7 -26 29 -17 44 3 5 2 10 -4 10 -6 0 -7 7 -4 17 5 12 3 14
-7 8 -10 -6 -12 -4 -7 8 3 10 2 17 -3 17 -5 0 -7 7 -4 15 4 8 1 15 -5 15 -6 0
-8 7 -4 17 5 12 3 14 -7 8 -10 -6 -12 -4 -7 8 3 10 2 17 -3 17 -5 0 -7 7 -4
15 4 8 1 15 -5 15 -6 0 -8 7 -4 17 5 12 3 14 -7 8 -10 -6 -12 -4 -7 8 4 10 2
17 -4 17 -6 0 -9 7 -5 15 3 8 1 15 -4 15 -5 0 -6 7 -3 17 5 11 3 14 -6 8 -10
-6 -11 -2 -6 15 5 17 4 21 -6 15 -9 -6 -11 -3 -6 8 3 10 2 17 -3 17 -5 0 -6 7
-3 17 5 11 3 14 -6 8 -10 -6 -11 -2 -6 15 5 17 4 21 -6 15 -9 -6 -11 -3 -6 8
4 10 2 17 -4 17 -6 0 -9 7 -5 15 3 8 1 15 -4 15 -5 0 -7 7 -4 15 4 8 1 15 -6
15 -6 0 -8 5 -5 10 3 6 2 10 -4 10 -6 0 -8 7 -5 15 4 8 1 15 -6 15 -6 0 -8 5
-5 10 3 6 1 10 -5 10 -7 0 -10 7 -6 15 3 8 1 15 -4 15 -5 0 -7 7 -4 15 4 8 1
15 -5 15 -6 0 -8 7 -4 17 5 12 3 14 -7 8 -10 -6 -12 -4 -7 8 4 10 2 17 -4 17
-6 0 -8 7 -5 16 4 9 2 13 -5 8 -8 -4 -9 1 -4 16 5 17 4 21 -6 15 -9 -6 -11 -3
-6 8 4 10 2 17 -4 17 -6 0 -8 7 -5 16 4 10 2 13 -6 8 -8 -5 -9 -2 -5 9 4 10 2
17 -4 17 -6 0 -9 7 -5 15 3 8 1 15 -4 15 -5 0 -7 7 -4 15 4 8 1 15 -5 15 -6 0
-8 7 -5 15 4 8 1 15 -6 15 -6 0 -8 5 -5 10 3 6 1 10 -5 10 -7 0 -10 7 -6 15 3
8 1 15 -4 15 -5 0 -6 7 -3 17 5 11 3 14 -6 8 -10 -6 -11 -2 -6 15 5 17 4 21
-6 15 -9 -6 -11 -3 -6 8 3 10 2 17 -3 17 -5 0 -6 7 -3 17 4 10 2 14 -4 10 -14
-9 -34 48 -26 70 5 12 3 14 -7 8 -10 -6 -12 -4 -7 8 3 10 2 17 -4 17 -6 0 -8
4 -5 9 5 8 -20 81 -27 81 -1 0 -16 -37 -32 -82z m-1767 -1855 c-10 -2 -28 -2
-40 0 -13 2 -5 4 17 4 22 1 32 -1 23 -4z m420 0 c-60 -2 -156 -2 -215 0 -60 1
-11 3 107 3 118 0 167 -2 108 -3z m275 0 c-29 -2 -77 -2 -105 0 -29 2 -6 3 52
3 58 0 81 -1 53 -3z m500 0 c-40 -2 -107 -2 -150 0 -43 1 -10 3 72 3 83 0 118
-2 78 -3z m160 0 c-7 -2 -21 -2 -30 0 -10 3 -4 5 12 5 17 0 24 -2 18 -5z m740
0 c-122 -2 -324 -2 -450 0 -125 1 -25 2 222 2 248 0 350 -1 228 -2z m510 0
c-13 -2 -33 -2 -45 0 -13 2 -3 4 22 4 25 0 35 -2 23 -4z m190 0 c-24 -2 -62
-2 -85 0 -24 2 -5 4 42 4 47 0 66 -2 43 -4z m371 -14 c-4 -7 22 -21 41 -23 6
-1 9 -12 7 -26 -2 -20 -1 -22 7 -10 8 11 11 5 11 -25 0 -26 -3 -35 -9 -27 -6
10 -10 9 -14 -7 -3 -14 -1 -19 6 -15 7 3 3 -2 -7 -10 -11 -9 -24 -16 -29 -16
-4 0 -6 -4 -3 -9 4 -5 -3 -7 -14 -4 -11 3 -20 0 -20 -6 0 -8 -430 -11 -1607
-11 -1146 0 -1604 3 -1593 11 12 9 11 10 -8 6 -12 -3 -20 -1 -16 4 3 5 1 9 -5
9 -6 0 -18 12 -26 28 -9 15 -14 19 -11 9 3 -10 2 -15 -4 -12 -5 3 -8 23 -7 45
1 21 3 38 5 36 4 -5 59 48 56 54 -1 3 728 5 1621 5 893 0 1621 -3 1619 -6z
m-816 -696 c-438 -2 -1158 -2 -1600 0 -442 1 -83 2 797 2 880 0 1241 -1 803
-2z m815 -15 c-2 -5 1 -9 6 -9 6 -1 15 -2 20 -3 5 0 13 -5 18 -10 5 -5 2 -6
-7 -2 -12 6 -12 5 1 -6 9 -7 14 -19 11 -27 -3 -8 0 -11 7 -7 7 5 11 -3 11 -24
0 -21 -4 -29 -11 -24 -7 4 -10 1 -7 -7 3 -8 -2 -20 -11 -27 -13 -11 -13 -12
-1 -6 8 4 11 3 7 -1 -4 -5 -15 -11 -25 -14 -41 -13 -3282 -11 -3279 2 1 6 -4
11 -10 10 -7 -2 -12 0 -12 5 3 18 -2 33 -10 28 -5 -3 -8 12 -7 33 0 22 5 37
10 34 5 -4 7 1 3 9 -7 19 22 47 42 40 8 -2 11 -1 8 4 -3 5 686 9 1618 9 893 0
1621 -3 1618 -7z m-3170 -195 c-7 -2 -21 -2 -30 0 -10 3 -4 5 12 5 17 0 24 -2
18 -5z M7606 4562 c-4 -8 275 -4 283 4 2 2 -59 4 -137 4 -77 0 -143 -4 -146
-8z M7604 4350 l1 -45 70 -3 c38 -2 67 0 63 3 -3 4 -33 7 -67 7 l-60 1 -4 41
c-4 41 -4 40 -3 -4z M9468 4243 c12 -2 32 -2 45 0 12 2 2 4 -23 4 -25 0 -35
-2 -22 -4z M8069 4207 c26 -28 31 -32 31 -19 0 4 -13 16 -28 26 l-27 19 24
-26z M9125 4088 l-40 -43 43 40 c23 21 42 40 42 42 0 8 -9 0 -45 -39z M9850
4085 c13 -14 26 -25 28 -25 3 0 -5 11 -18 25 -13 14 -26 25 -28 25 -3 0 5 -11
18 -25z M8222 4075 c15 -16 29 -27 31 -24 3 2 -10 15 -27 28 l-31 24 27 -28z
M8300 4005 c13 -14 26 -25 28 -25 3 0 -5 11 -18 25 -13 14 -26 25 -28 25 -3 0
5 -11 18 -25z M9030 3959 c-7 -11 -10 -23 -7 -25 2 -2 9 7 15 21 14 30 7 33
-8 4z M7607 3963 c-3 -5 49 -7 115 -5 104 3 123 1 142 -15 l21 -18 -19 23
c-19 22 -246 36 -259 15z M7605 3545 c0 -220 1 -309 2 -197 2 112 2 292 0 400
-1 108 -2 17 -2 -203z M7896 3911 c-3 -4 3 -16 14 -26 11 -10 20 -15 20 -10 0
4 8 1 18 -6 9 -7 4 1 -12 19 -33 36 -33 35 -40 23z M8454 3871 c20 -22 26 -25
26 -13 0 4 -10 13 -22 21 -23 14 -23 14 -4 -8z M7991 3833 c6 -10 26 -29 43
-42 26 -21 25 -18 -9 17 -42 45 -52 52 -34 25z M9993 3730 c0 -47 2 -66 4 -42
2 23 2 61 0 85 -2 23 -4 4 -4 -43z M8070 3767 c0 -2 15 -16 33 -33 l32 -29
-29 33 c-28 30 -36 37 -36 29z M8170 3675 c7 -8 9 -15 4 -15 -14 0 15 -24 32
-26 12 -2 8 6 -12 27 -29 30 -46 40 -24 14z M8262 3590 c7 -11 19 -22 28 -25
8 -4 4 5 -9 19 -29 31 -36 33 -19 6z M8563 3503 c86 -2 228 -2 315 0 86 1 15
3 -158 3 -173 0 -244 -2 -157 -3z M9839 3363 l-34 -38 38 34 c20 19 37 36 37
38 0 8 -8 0 -41 -34z M321 3250 c0 -8 4 -22 9 -30 12 -18 12 -2 0 25 -6 13 -9
15 -9 5z M9463 3213 c15 -2 37 -2 50 0 12 2 0 4 -28 4 -27 0 -38 -2 -22 -4z
M370 3124 c0 -6 7 -19 16 -30 14 -18 14 -18 3 6 -14 31 -19 36 -19 24z M7990
2788 c24 -27 45 -48 47 -48 8 0 0 9 -44 50 l-48 45 45 -47z M1702 2673 l658
-3 3 -183 2 -182 3 188 2 187 -662 -2 -663 -3 657 -2z M8140 2645 c19 -19 36
-35 39 -35 3 0 -10 16 -29 35 -19 19 -36 35 -39 35 -3 0 10 -16 29 -35z M7603
2490 c0 -104 1 -108 6 -40 4 41 3 93 0 115 -4 23 -6 -8 -6 -75z M7760 2535
c19 -19 36 -35 39 -35 3 0 -10 16 -29 35 -19 19 -36 35 -39 35 -3 0 10 -16 29
-35z M8270 2525 c19 -19 36 -35 39 -35 3 0 -10 16 -29 35 -19 19 -36 35 -39
35 -3 0 10 -16 29 -35z M7905 2400 c27 -27 51 -50 54 -50 3 0 -17 23 -44 50
-27 28 -51 50 -54 50 -3 0 17 -22 44 -50z M9555 2400 c21 -22 41 -40 44 -40 3
0 -13 18 -34 40 -21 22 -41 40 -44 40 -3 0 13 -18 34 -40z M8380 2427 c0 -2
15 -16 33 -33 l32 -29 -29 33 c-28 30 -36 37 -36 29z M8839 2383 l-24 -28 28
24 c25 23 32 31 24 31 -2 0 -14 -12 -28 -27z M8035 2280 c27 -27 51 -50 54
-50 3 0 -17 23 -44 50 -27 28 -51 50 -54 50 -3 0 17 -22 44 -50z M8500 2317
c0 -2 15 -16 33 -33 l32 -29 -29 33 c-28 30 -36 37 -36 29z M8770 2289 c-7
-11 -10 -23 -7 -25 2 -2 9 7 15 21 14 30 7 33 -8 4z M2363 2235 c0 -38 2 -53
4 -32 2 20 2 52 0 70 -2 17 -4 1 -4 -38z M8658 2273 c12 -2 32 -2 45 0 12 2 2
4 -23 4 -25 0 -35 -2 -22 -4z M8170 2158 c24 -27 45 -48 47 -48 8 0 0 9 -44
50 l-48 45 45 -47z M2363 2040 c0 -47 2 -66 4 -42 2 23 2 61 0 85 -2 23 -4 4
-4 -43z M9713 2045 c0 -44 2 -61 4 -37 2 23 2 59 0 80 -2 20 -4 1 -4 -43z
M8290 2045 c19 -19 36 -35 39 -35 3 0 -10 16 -29 35 -19 19 -36 35 -39 35 -3
0 10 -16 29 -35z M8595 1913 c79 -3 122 -8 128 -16 6 -9 7 -8 4 3 -3 12 -26
15 -128 16 l-124 0 120 -3z M2363 1820 c0 -47 2 -66 4 -42 2 23 2 61 0 85 -2
23 -4 4 -4 -43z M8855 1670 c21 -22 41 -40 44 -40 3 0 -13 18 -34 40 -21 22
-41 40 -44 40 -3 0 13 -18 34 -40z M7240 1585 c-24 -25 -42 -45 -39 -45 3 0
25 20 49 45 24 25 42 45 39 45 -3 0 -25 -20 -49 -45z M2780 1520 c8 -5 22 -9
30 -9 10 0 8 3 -5 9 -27 12 -43 12 -25 0z M9198 1523 c12 -2 30 -2 40 0 9 3
-1 5 -23 4 -22 0 -30 -2 -17 -4z M2510 1405 c19 -19 36 -35 39 -35 3 0 -10 16
-29 35 -19 19 -36 35 -39 35 -3 0 10 -16 29 -35z M6120 615 c-24 -25 -42 -45
-39 -45 3 0 25 20 49 45 24 25 42 45 39 45 -3 0 -25 -20 -49 -45z M2910 315
c13 -14 26 -25 28 -25 3 0 -5 11 -18 25 -13 14 -26 25 -28 25 -3 0 5 -11 18
-25z M5283 223 c9 -2 23 -2 30 0 6 3 -1 5 -18 5 -16 0 -22 -2 -12 -5z"/>
</g>
  <g transform="translate(0.000000,983.000000) scale(0.100000,-0.100000)"
fill="#1078E0" stroke="none">
<path d="M3739 9609 c-550 -46 -1028 -426 -1214 -964 -71 -205 -69 -176 -72
-1050 l-3 -790 -29 -60 c-16 -33 -35 -88 -41 -122 l-13 -63 -636 0 c-367 0
-674 -4 -725 -10 -329 -38 -601 -275 -688 -599 -20 -75 -20 -92 -18 -1341 l2
-1264 25 -86 c64 -223 214 -402 418 -500 160 -77 117 -74 913 -77 l712 -4 0
-492 c0 -394 3 -503 15 -546 49 -187 202 -335 385 -373 l59 -12 3 -400 3 -401
28 -57 c32 -65 89 -121 156 -152 l46 -21 1135 0 c1247 0 1194 -2 1387 61 394
130 723 454 873 858 l42 113 84 12 c597 84 1014 576 1014 1197 l0 134 49 0 49
0 351 -325 c416 -385 363 -349 535 -355 l138 -5 21 -55 c128 -350 575 -443
829 -174 304 323 79 853 -363 854 -172 0 -360 -109 -427 -248 l-16 -32 -105 1
-106 0 -355 330 c-389 361 -371 349 -506 349 l-81 0 -7 168 c-3 92 -6 318 -6
502 0 184 0 341 0 348 0 9 -32 12 -125 12 l-124 0 -3 -852 c-3 -849 -3 -853
-26 -933 -92 -331 -334 -570 -665 -658 l-82 -22 -1885 0 -1885 0 -40 22 c-53
28 -99 78 -124 133 -20 44 -21 60 -21 1178 l0 1132 -1054 0 -1054 0 -7 63 c-3
34 -4 91 -1 127 2 36 4 82 5 103 l1 37 1055 0 1055 0 0 1138 0 1137 24 50 c40
84 1020 1065 1101 1102 l60 28 1655 3 c1858 2 1707 9 1799 -74 100 -90 91 79
91 -1769 l0 -1615 128 0 127 0 1 133 0 132 165 5 c204 6 160 -21 484 301 l270
269 170 1 c94 1 204 1 246 0 l75 -1 21 -44 c143 -294 565 -356 803 -117 344
347 54 948 -425 880 -181 -25 -377 -188 -410 -340 l-7 -29 -281 0 c-356 0
-295 29 -632 -309 l-270 -271 -107 0 -107 0 2 653 2 652 155 5 c195 6 153 -21
510 328 l298 292 105 0 105 0 21 -33 c102 -166 350 -258 542 -201 519 154 480
900 -53 995 -244 44 -523 -145 -563 -380 l-7 -41 -124 0 c-175 0 -154 14 -494
-325 l-295 -295 -101 0 -101 0 -2 498 c-2 531 -4 546 -55 651 -114 237 -243
294 -678 299 l-318 3 -2 738 -3 737 -28 42 c-15 23 -46 52 -70 64 l-42 23
-1285 1 c-707 1 -1328 -2 -1381 -7z M4081 6904 c-42 -35 -44 -93 -5 -129 l27
-25 1253 0 1253 0 28 24 c36 31 39 95 5 128 l-23 23 -1253 3 -1254 2 -31 -26z
M3390 6203 c-62 -23 -81 -103 -35 -148 l24 -25 1619 0 1619 0 21 23 c47 50 32
125 -29 146 -33 11 -3188 15 -3219 4z M3395 5483 c-65 -16 -88 -101 -40 -148
l24 -25 606 0 607 0 29 29 c46 46 37 106 -21 136 -28 15 -1146 22 -1205 8z
M5894 5480 c-58 -23 -70 -95 -25 -141 l29 -29 357 0 357 0 29 29 c44 44 33
108 -22 137 -32 16 -686 20 -725 4z M3349 2961 c-46 -47 -30 -118 32 -140 53
-18 3189 -15 3233 3 61 26 70 111 14 150 -20 15 -173 16 -1636 16 l-1614 0
-29 -29z M3349 2251 c-36 -37 -38 -79 -5 -118 l24 -28 1626 0 1625 0 23 23
c34 33 31 97 -5 128 l-28 24 -1615 0 -1616 0 -29 -29z"/>
</g>
  <g transform="translate(0.000000,983.000000) scale(0.100000,-0.100000)"
fill="#98D030" stroke="none">
<path d="M5215 5686 c-44 -19 -45 -21 -138 -271 -48 -126 -187 -500 -310 -829
l-224 -600 -25 40 c-14 21 -103 170 -198 329 -257 432 -251 430 -500 154 -80
-89 -158 -172 -173 -185 l-29 -24 -1554 0 -1554 0 -1 -37 c-1 -21 -3 -67 -5
-103 -3 -36 -2 -93 1 -127 l7 -63 1614 0 c1377 0 1619 2 1642 14 15 8 76 69
136 135 60 67 110 120 111 119 2 -3 133 -233 283 -498 228 -402 225 -399 297
-386 61 12 43 -33 523 1246 l130 344 17 -39 c9 -22 46 -119 82 -215 35 -96
141 -380 234 -630 94 -250 177 -475 186 -499 26 -69 102 -101 159 -68 11 7
114 117 228 245 l208 232 741 0 742 -1 245 -217 c304 -269 235 -242 619 -242
l317 0 22 -38 c194 -346 714 -330 889 28 217 443 -243 905 -682 683 -103 -52
-255 -243 -255 -319 0 -12 -45 -14 -260 -14 l-260 0 -243 211 c-133 116 -255
218 -272 227 -38 19 -1708 19 -1752 -1 -14 -6 -77 -73 -140 -150 -81 -96 -118
-135 -124 -125 -4 7 -57 146 -117 308 -359 961 -489 1305 -502 1331 -7 11 -27
27 -45 35 -40 16 -33 16 -70 0z"/>
</g>
</svg>