<?xml version="1.0" encoding="UTF-8"?>
<svg xmlns="http://www.w3.org/2000/svg" viewBox="0 0 103248.000000 29160.000000" width="1434" height="405" role="img" aria-label="Alocare AI">
  <g transform="translate(0.000000,29160.000000) scale(7.200000,-7.200000)">
    <path fill="#001450" d="M6085 2627 c-3 -7 -4 -337 -3 -732 l3 -720 23 -50 c48 -104 131 -155 256 -158 39 -1 92 2 119 6 l47 8 0 120 0 119 -58 0 c-48 0 -62 4 -80 23 l-22 23 -2 685 -3 684 -138 3 c-106 2 -139 0 -142 -11z"/>
    <path fill="#001450" d="M5198 2154 c-79 -19 -171 -67 -218 -114 -43 -43 -100 -135 -100 -162 0 -13 27 -26 110 -52 60 -20 116 -36 124 -36 7 0 19 13 26 30 35 84 147 133 254 110 101 -21 154 -74 163 -162 l6 -55 -34 -12 c-18 -6 -90 -16 -159 -22 -280 -23 -382 -56 -468 -155 -57 -64 -75 -125 -70 -233 5 -102 30 -163 91 -222 147 -144 446 -139 593 9 43 44 56 51 53 30 -1 -7 -1 -37 0 -65 l1 -53 135 0 135 0 0 394 c0 219 -4 416 -10 446 -32 171 -150 288 -329 326 -83 17 -228 17 -303 -2z m359 -723 c-13 -160 -116 -248 -281 -239 -87 4 -120 22 -150 82 -37 74 11 159 106 185 39 11 234 37 302 40 l29 1 -6 -69z"/>
    <path fill="#001450" d="M7070 2147 c-163 -50 -279 -146 -349 -290 -53 -107 -71 -181 -71 -291 0 -179 52 -311 169 -426 125 -124 246 -173 426 -174 277 0 489 148 573 401 21 66 25 97 26 198 0 106 -3 130 -28 202 -61 182 -183 309 -358 371 -107 37 -282 42 -388 9z m305 -266 c193 -85 244 -385 94 -556 -56 -63 -111 -88 -206 -93 -78 -4 -88 -2 -148 27 -118 58 -169 152 -169 311 0 100 15 151 64 220 76 107 238 147 365 91z"/>
    <path fill="#001450" d="M8436 2154 c-250 -61 -418 -275 -433 -554 -20 -362 231 -632 587 -634 162 0 285 44 388 139 54 50 122 154 122 186 0 12 -96 55 -232 104 -12 5 -22 -4 -37 -33 -47 -92 -137 -137 -260 -130 -122 7 -194 58 -250 178 -22 48 -25 69 -25 155 0 89 3 107 28 162 65 142 201 209 342 168 73 -21 118 -54 157 -116 l29 -48 62 24 c155 59 178 69 183 81 8 23 -50 116 -112 180 -68 69 -152 116 -247 139 -78 18 -224 18 -302 -1z"/>
    <path fill="#001450" d="M9608 2154 c-148 -35 -285 -152 -313 -266 -7 -26 -5 -27 104 -62 61 -20 117 -36 125 -36 7 0 19 14 26 30 34 83 150 133 258 111 109 -22 162 -76 162 -167 0 -50 -1 -53 -32 -63 -18 -6 -101 -17 -184 -25 -306 -30 -415 -80 -486 -226 -18 -36 -22 -63 -23 -140 0 -84 3 -101 28 -152 68 -139 237 -215 420 -189 100 14 172 46 237 107 l50 47 0 -67 0 -66 134 0 c113 0 135 2 140 16 10 27 6 735 -5 804 -29 179 -147 301 -331 345 -78 18 -234 18 -310 -1z m362 -710 c0 -115 -42 -184 -137 -229 -67 -32 -165 -37 -225 -12 -86 36 -104 150 -35 213 19 18 54 38 77 44 34 9 229 34 303 39 14 1 17 -8 17 -55z"/>
    <path fill="#001450" d="M11720 2154 c-104 -27 -192 -78 -261 -152 -114 -121 -160 -244 -162 -432 -2 -185 49 -318 167 -436 119 -119 241 -168 421 -168 163 0 276 36 376 119 50 42 119 130 119 151 0 9 -43 35 -106 64 -106 50 -134 58 -134 40 0 -21 -68 -85 -115 -106 -68 -32 -198 -33 -265 -3 -90 40 -170 151 -170 234 l0 25 415 0 415 0 0 103 c0 288 -155 504 -402 562 -79 19 -226 18 -298 -1z m234 -231 c98 -27 186 -130 186 -217 0 -14 -27 -16 -275 -16 -311 0 -293 -6 -254 80 44 97 146 165 253 169 16 1 57 -7 90 -16z"/>
    <path fill="#001450" d="M11047 2149 c-85 -20 -170 -81 -219 -158 l-28 -45 0 97 0 97 -140 0 -140 0 0 -575 0 -575 145 0 145 0 0 317 c0 377 5 409 80 484 61 61 121 81 232 78 l83 -2 3 138 c2 104 -1 140 -10 147 -17 10 -102 9 -151 -3z"/>
    <path fill="#001450" d="M1430 1350 c-8 -5 -10 -10 -5 -10 6 0 17 5 25 10 8 5 11 10 5 10 -5 0 -17 -5 -25 -10z"/>
    <path fill="#001450" d="M1298 1289 c-43 -21 -78 -42 -78 -44 0 -3 24 6 53 20 42 21 47 22 27 6 -23 -19 -23 -21 -5 -20 24 0 61 26 52 36 -4 3 5 15 20 25 47 30 12 19 -69 -23z"/>
    <path fill="#001450" d="M1144 1201 c-55 -37 -136 -111 -122 -111 4 0 30 23 59 50 50 48 87 69 58 33 -8 -9 -9 -15 -4 -12 53 26 65 34 65 41 0 5 -9 4 -21 -2 -11 -7 -23 -9 -26 -7 -3 3 9 13 26 22 17 8 31 18 31 20 0 9 -8 5 -66 -34z"/>
    <path fill="#001450" d="M1085 1120 c-23 -24 -25 -30 -12 -30 9 0 17 7 17 15 0 7 8 18 17 24 10 5 15 12 12 15 -3 3 -18 -8 -34 -24z"/>
    <path fill="#001450" d="M1246 1031 c5 -55 3 -60 -13 -54 -33 13 -51 35 -45 56 5 20 6 20 13 1 6 -16 8 -15 8 9 1 22 -3 27 -23 27 -31 0 -43 -18 -20 -27 16 -6 16 -7 -2 -14 -10 -4 -31 -4 -46 -2 -24 5 -28 2 -28 -16 0 -26 -18 -59 -44 -81 -19 -16 -19 -17 4 -33 20 -14 21 -17 7 -23 -9 -3 -17 -12 -17 -18 0 -7 -11 -19 -25 -26 -14 -7 -25 -20 -25 -27 0 -7 -7 -16 -15 -19 -8 -4 -15 -12 -15 -20 0 -7 -6 -17 -12 -21 -7 -4 -18 -17 -24 -28 -6 -11 -23 -26 -37 -33 -28 -14 -34 -27 -17 -37 6 -3 10 -14 10 -25 0 -15 -5 -17 -35 -10 -19 4 -35 4 -35 0 0 -5 -3 -16 -7 -26 -5 -13 -3 -15 7 -9 10 6 11 2 5 -21 -4 -16 -7 -44 -7 -62 1 -28 -5 -35 -38 -52 -22 -11 -46 -20 -55 -20 -8 0 -36 -16 -62 -36 -59 -45 -64 -50 -35 -35 29 16 34 12 17 -13 -10 -14 -22 -17 -47 -13 -18 2 -44 0 -58 -5 -14 -6 -50 -13 -80 -17 l-55 -7 70 -9 c51 -6 95 -3 165 8 84 15 116 27 278 108 100 50 180 94 178 98 -3 4 3 7 12 8 9 0 103 41 207 91 105 50 234 106 288 124 l97 34 -54 1 c-66 2 -91 14 -91 45 -1 13 -6 22 -13 21 -6 -2 -9 4 -6 12 5 12 -5 14 -63 10 -50 -4 -63 -2 -50 5 9 6 17 18 17 26 0 11 8 14 28 11 15 -2 21 -2 15 0 -7 3 -13 9 -13 13 0 5 -18 7 -40 4 -34 -5 -43 -2 -66 23 -17 17 -25 21 -21 11 4 -12 1 -18 -8 -18 -9 0 -15 10 -15 24 0 20 -4 23 -21 19 -21 -6 -22 -3 -17 40 4 37 1 52 -13 68 -19 21 -19 21 -13 -40z m-118 -40 c3 -8 -1 -12 -9 -9 -7 2 -15 10 -17 17 -3 8 1 12 9 9 7 -2 15 -10 17 -17z m348 -285 c12 -12 9 -16 -17 -25 -21 -7 -28 -7 -23 0 4 7 -1 9 -15 4 -35 -11 -47 6 -15 21 39 17 53 17 70 0z m-556 -102 c0 -2 -7 -4 -15 -4 -8 0 -15 4 -15 10 0 5 7 7 15 4 8 -4 15 -8 15 -10z m333 10 c-7 -3 -9 -13 -6 -22 4 -15 3 -15 -6 -2 -15 22 -14 30 7 29 9 0 12 -3 5 -5z m-216 -110 c-3 -3 -12 -4 -19 -1 -8 3 -5 6 6 6 11 1 17 -2 13 -5z"/>
    <path fill="#001450" d="M1221 1014 c0 -11 3 -14 6 -6 3 7 2 16 -1 19 -3 4 -6 -2 -5 -13z"/>
    <path fill="#001450" d="M1440 870 c0 -5 5 -10 11 -10 5 0 7 5 4 10 -3 6 -8 10 -11 10 -2 0 -4 -4 -4 -10z"/>
    <path fill="#001450" d="M1734 805 c-9 -18 -9 -25 0 -29 6 -2 0 -5 -13 -5 -13 -1 -22 -3 -20 -6 3 -2 48 2 100 9 52 8 79 14 61 15 -18 1 -43 7 -55 15 -43 27 -61 27 -73 1z"/>
    <path fill="#1078E0" d="M1886 3808 c-11 -6 -39 -8 -68 -5 -27 4 -46 3 -44 -2 3 -4 -18 -16 -45 -25 -67 -24 -158 -93 -210 -158 -25 -32 -48 -52 -58 -50 -13 2 -13 1 -2 -6 10 -7 11 -14 3 -28 -6 -11 -14 -19 -19 -19 -4 0 -8 -7 -8 -16 0 -8 -11 -39 -24 -67 -18 -38 -27 -49 -34 -40 -6 9 -7 7 -3 -5 4 -12 -65 -158 -203 -430 -114 -227 -248 -490 -295 -585 -54 -107 -91 -170 -98 -166 -7 4 -8 2 -4 -4 10 -17 -76 -185 -87 -169 -6 8 -7 6 -3 -6 7 -22 -221 -480 -234 -472 -6 3 -8 0 -5 -7 3 -7 -40 -101 -94 -208 -80 -156 -103 -194 -118 -192 -14 3 -15 1 -6 -8 14 -15 -4 -63 -20 -53 -6 3 -7 1 -3 -5 11 -18 -14 -61 -33 -55 -12 4 -13 3 -3 -4 10 -8 11 -15 1 -36 -7 -15 -16 -24 -22 -20 -6 3 -7 1 -3 -5 9 -14 -14 -63 -27 -55 -6 3 -7 1 -3 -5 3 -6 1 -22 -6 -37 -8 -18 -14 -22 -19 -13 -4 7 -12 9 -16 4 -4 -5 -2 -11 5 -13 6 -3 12 -11 12 -18 0 -7 64 111 141 263 78 153 172 336 209 407 93 180 865 1701 886 1748 13 27 20 34 27 25 6 -9 7 -7 3 5 -9 29 149 321 206 379 31 32 52 46 62 42 13 -5 10 -14 -19 -54 -37 -50 -65 -139 -65 -205 0 -76 29 -141 141 -316 159 -247 244 -406 229 -424 -10 -12 -9 -15 8 -15 11 0 23 -7 26 -16 3 -8 10 -12 16 -9 6 4 7 -1 3 -11 -4 -10 -2 -15 4 -11 5 3 9 -2 9 -11 -1 -26 173 -364 184 -357 6 4 7 -1 3 -11 -5 -13 -3 -15 7 -9 8 5 11 4 6 -3 -3 -6 74 -173 173 -371 150 -299 177 -360 163 -364 -14 -4 -13 -5 3 -6 15 -1 29 -17 48 -56 15 -30 22 -55 17 -55 -18 0 -10 -19 10 -25 23 -7 27 -25 6 -25 -8 0 -16 -5 -18 -11 -3 -9 -10 -9 -23 -1 -11 5 -65 25 -120 43 -55 18 -103 37 -107 43 -4 6 -23 9 -42 8 -20 -2 -36 1 -36 5 0 4 -26 9 -58 10 -54 1 -51 0 48 -23 115 -26 266 -74 349 -110 29 -13 56 -24 60 -24 4 0 -71 154 -166 343 -112 223 -170 349 -167 362 4 14 3 16 -4 7 -14 -21 -24 15 -11 40 12 23 9 28 -19 31 -14 1 -30 22 -56 74 -20 40 -34 73 -31 73 3 0 18 -27 35 -60 17 -33 34 -60 40 -60 18 0 21 21 7 48 -7 16 -13 40 -13 54 1 14 -3 24 -9 22 -6 -3 -11 5 -12 16 -1 12 4 20 13 20 8 0 13 -4 10 -9 -3 -4 6 -6 21 -3 l26 5 -24 11 c-27 12 -33 45 -13 64 12 11 14 8 14 -13 0 -14 4 -25 9 -25 4 0 6 11 4 24 -4 19 1 25 25 34 25 9 33 7 58 -15 23 -19 30 -22 32 -10 2 12 10 13 33 7 27 -8 29 -7 29 18 0 23 4 27 30 28 16 1 27 -3 24 -7 -8 -14 5 -11 37 8 15 9 30 24 32 32 4 13 5 13 6 -1 1 -14 10 -17 59 -14 31 1 63 -2 71 -8 12 -9 13 -8 8 6 -7 19 17 43 32 33 6 -3 20 -1 31 5 16 9 18 15 10 30 -5 10 -10 22 -10 27 1 4 10 -9 21 -30 15 -28 17 -42 10 -51 -6 -7 -8 -16 -4 -20 4 -3 -3 -13 -15 -22 -22 -15 -21 -39 1 -31 7 2 17 -2 22 -9 6 -6 20 -15 32 -19 19 -5 22 -3 17 12 -5 17 -5 17 6 0 9 -14 9 -22 -2 -35 -12 -15 -11 -16 4 -4 15 12 27 -6 124 -200 58 -117 175 -346 259 -508 382 -740 375 -726 390 -831 7 -54 -15 -159 -45 -220 -68 -132 -216 -219 -373 -219 -71 0 -192 33 -243 66 -13 9 -27 14 -31 11 -3 -4 6 -12 20 -18 15 -7 24 -16 20 -22 -3 -6 -2 -7 4 -4 5 3 44 -5 87 -19 42 -13 87 -24 99 -25 21 0 21 -1 2 -9 -14 -6 -4 -9 38 -9 33 -1 56 3 53 8 -4 5 13 12 36 16 91 16 205 86 258 160 14 19 31 35 38 35 7 0 10 5 7 10 -4 6 4 36 16 68 28 73 30 184 5 262 -17 51 -101 220 -342 685 -51 99 -194 380 -318 625 -124 245 -230 445 -237 445 -7 0 -14 7 -16 15 -4 13 -3 13 7 0 33 -45 -16 59 -244 506 -189 370 -261 503 -298 547 -27 31 -46 57 -42 57 24 0 -151 80 -198 91 -32 8 -58 17 -58 21 0 11 -11 10 -34 -4z m-49 -24 c-3 -3 -12 -4 -19 -1 -8 3 -5 6 6 6 11 1 17 -2 13 -5z m227 -1310 c3 -8 2 -12 -4 -9 -6 3 -10 10 -10 16 0 14 7 11 14 -7z m800 -90 c3 -8 2 -12 -4 -9 -6 3 -10 10 -10 16 0 14 7 11 14 -7z m-601 -66 c-6 -7 -13 -20 -16 -28 -3 -9 -6 -3 -6 13 -1 19 4 27 15 27 12 0 14 -4 7 -12z m27 -293 c0 -5 -5 -3 -10 5 -5 8 -10 20 -10 25 0 6 5 3 10 -5 5 -8 10 -19 10 -25z m337 -722 c-11 -10 -26 8 -20 23 5 15 7 14 15 -1 6 -9 7 -19 5 -22z"/>
    <path fill="#1078E0" d="M1533 3606 c-22 -27 -23 -46 -2 -46 5 0 9 6 9 14 0 8 5 16 11 18 6 2 10 12 8 23 -4 17 -6 16 -26 -9z"/>
    <path fill="#1078E0" d="M3677 3218 c-9 -7 -26 -45 -37 -85 -30 -110 -49 -153 -66 -146 -8 3 -14 0 -14 -7 0 -6 5 -8 10 -5 16 10 12 -7 -10 -43 -11 -18 -18 -37 -15 -41 2 -5 -4 -20 -15 -34 -23 -29 -109 -99 -96 -78 6 9 5 12 -5 9 -8 -3 -13 -11 -11 -17 1 -7 -2 -10 -7 -6 -6 3 -33 -6 -62 -20 -32 -17 -60 -24 -74 -21 -16 4 -25 1 -29 -10 -5 -12 -14 -14 -34 -10 -20 5 -23 4 -12 -4 13 -8 13 -10 -2 -10 -24 0 -51 -44 -43 -69 4 -15 26 -26 78 -42 40 -12 93 -32 119 -45 26 -13 51 -24 55 -24 4 1 -21 16 -57 35 -67 35 -75 46 -15 21 38 -16 41 2 2 19 -16 8 -21 17 -19 37 2 24 -2 28 -33 34 -19 3 -35 10 -35 15 0 5 -8 9 -17 10 -10 0 0 7 22 15 29 11 46 12 65 5 30 -12 88 -12 112 0 10 6 19 5 23 -1 3 -5 18 -10 33 -10 15 0 34 -4 42 -10 11 -7 9 -11 -13 -19 -15 -6 -27 -16 -27 -22 0 -8 -4 -8 -15 1 -15 13 -70 5 -81 -11 -3 -5 8 -21 25 -35 17 -14 31 -32 31 -39 0 -12 -6 -13 -45 -5 -23 5 -27 -1 -9 -14 21 -16 25 -37 9 -49 -6 -5 -1 -7 10 -4 11 2 19 9 17 16 -2 9 3 8 19 -3 16 -11 24 -12 34 -3 9 8 10 16 3 24 -13 16 36 10 59 -8 10 -7 15 -10 11 -5 -9 11 11 31 39 38 18 5 28 -1 45 -24 l21 -31 -26 18 c-24 16 -27 16 -33 1 -3 -9 -15 -16 -25 -16 -11 0 -19 -7 -19 -16 0 -13 -6 -15 -32 -10 -70 15 -77 16 -81 9 -3 -5 12 -16 32 -27 l36 -18 -20 23 c-20 24 -20 24 8 0 27 -24 36 -38 17 -26 -16 10 -12 -4 12 -35 11 -16 24 -27 27 -25 4 2 17 -5 30 -14 16 -13 24 -30 26 -56 l2 -39 -26 50 c-14 27 -32 50 -39 52 -8 1 -12 -3 -9 -10 2 -7 10 -12 16 -10 9 2 9 -3 1 -17 -11 -21 1 -37 19 -26 11 6 43 -77 62 -158 23 -106 90 -113 117 -13 7 26 17 45 24 44 7 -2 14 7 16 20 2 12 -1 22 -7 22 -10 0 0 31 34 114 5 12 5 17 -1 13 -5 -3 -10 3 -10 13 0 10 3 18 6 18 3 0 8 1 13 2 4 1 10 3 15 4 10 2 90 90 88 98 0 3 3 10 8 15 5 5 6 3 2 -4 -11 -20 -3 -16 54 22 28 19 93 48 143 64 51 16 96 36 101 44 5 7 6 25 2 40 -5 22 -19 30 -101 57 -52 17 -95 36 -95 42 0 11 -30 37 -43 38 -5 0 -5 -5 -1 -11 13 -21 -56 25 -89 59 -25 25 -27 32 -12 27 20 -6 20 -6 0 6 -47 30 -108 120 -87 127 17 5 15 22 -2 22 -15 0 -35 46 -56 125 -11 44 -39 85 -59 85 -4 0 -15 -6 -24 -12z m58 -433 c14 -25 30 -43 34 -41 10 6 53 -38 46 -46 -4 -3 10 -16 29 -28 41 -25 43 -52 5 -76 l-24 -16 24 21 c13 12 19 21 14 21 -13 0 -48 -27 -48 -37 0 -5 -17 -29 -39 -53 -24 -28 -34 -36 -27 -20 l12 25 -20 -25 c-11 -14 -23 -33 -27 -42 -9 -29 -19 -21 -49 35 -28 50 -51 76 -69 77 -5 0 -3 -7 4 -15 20 -24 5 -18 -16 7 -12 13 -13 18 -4 13 13 -8 13 -7 1 9 -8 9 -20 15 -27 12 -8 -3 -13 -1 -11 4 1 5 -7 16 -18 24 -18 14 -18 16 -2 17 9 1 21 2 26 3 15 2 51 53 43 61 -4 5 -2 5 4 2 11 -7 47 29 87 87 10 14 20 26 22 26 1 0 15 -20 30 -45z m290 -43 c-3 -3 -11 0 -18 7 -9 10 -8 11 6 5 10 -3 15 -9 12 -12z m-850 -94 c-7 -19 6 -33 45 -46 l35 -11 -35 5 c-42 7 -65 27 -57 48 4 9 9 16 11 16 3 0 3 -6 1 -12z m527 -228 c4 0 8 4 8 8 0 5 7 9 15 9 19 0 19 -21 0 -37 -11 -9 -13 -16 -5 -24 16 -16 12 -44 -7 -42 -11 0 -17 -6 -17 -16 2 -21 -5 -22 -28 -4 -22 16 -23 46 -2 46 8 0 13 4 10 9 -4 5 0 12 6 14 7 3 -4 3 -24 0 -44 -7 -48 1 -13 29 14 11 25 27 26 36 0 13 3 11 11 -5 6 -13 15 -23 20 -23z m-76 -77 c-10 -10 -19 5 -10 18 6 11 8 11 12 0 2 -7 1 -15 -2 -18z m117 -88 c19 -18 27 -22 27 -11 0 8 4 17 9 20 5 3 -2 -28 -14 -69 -31 -100 -33 -105 -29 -74 1 14 -2 31 -9 38 -6 6 -7 11 -2 11 16 0 -30 29 -47 30 -25 0 -28 -11 -16 -57 7 -31 18 -46 42 -57 l31 -16 -34 2 c-33 3 -34 5 -52 73 -21 81 -23 97 -8 71 9 -15 13 -16 20 -5 5 8 6 22 3 31 -13 44 36 52 79 13z"/>
    <path fill="#1078E0" d="M3692 2775 c-7 -8 -9 -15 -4 -15 5 0 15 7 22 15 16 19 -1 19 -18 0z"/>
    <path fill="#1078E0" d="M3764 2726 c-8 -22 -1 -28 26 -24 l22 3 -21 19 c-19 17 -21 17 -27 2z"/>
    <path fill="#1078E0" d="M3775 2560 c-27 -30 -12 -34 15 -5 13 14 19 25 13 25 -5 0 -18 -9 -28 -20z"/>
    <path fill="#1078E0" d="M3698 2363 c7 -3 16 -2 19 1 4 3 -2 6 -13 5 -11 0 -14 -3 -6 -6z"/>
    <path fill="#1078E0" d="M3610 3150 c0 -5 5 -10 10 -10 6 0 10 5 10 10 0 6 -4 10 -10 10 -5 0 -10 -4 -10 -10z"/>
    <path fill="#1078E0" d="M3515 2870 c-10 -11 -28 -20 -39 -21 -12 0 -15 -3 -8 -6 10 -4 8 -12 -10 -31 -19 -21 -19 -24 -3 -12 36 25 67 55 76 73 13 23 6 22 -16 -3z"/>
    <path fill="#1078E0" d="M1845 2789 c-6 -17 -9 -19 -17 -8 -8 11 -8 10 -4 -5 7 -22 -43 -118 -57 -109 -6 3 -7 1 -4 -5 9 -14 -3 -43 -14 -36 -5 3 -6 -3 -2 -12 5 -13 3 -15 -7 -9 -8 5 -11 4 -6 -3 9 -14 -14 -63 -27 -55 -6 3 -7 1 -3 -5 4 -6 0 -24 -9 -39 -15 -27 -16 -27 -10 -3 5 19 4 22 -4 10 -6 -8 -8 -22 -6 -30 5 -16 -9 -45 -22 -45 -4 0 -19 -12 -32 -27 -18 -22 -21 -32 -12 -42 14 -17 -6 -69 -22 -59 -6 3 -7 1 -3 -5 9 -14 -14 -63 -27 -55 -6 3 -7 1 -3 -5 9 -14 -14 -63 -27 -55 -6 3 -7 1 -3 -5 9 -14 -12 -65 -24 -57 -5 3 -7 0 -4 -8 3 -8 -43 -111 -102 -228 -132 -264 -359 -737 -369 -769 -6 -20 4 -14 50 29 33 29 83 66 112 83 61 35 71 48 14 19 -21 -11 -42 -17 -46 -13 -5 4 -4 1 0 -7 6 -11 4 -13 -8 -8 -10 4 -28 2 -42 -3 -29 -11 -29 -10 -13 25 8 18 14 22 19 13 4 -7 11 -9 16 -5 4 5 2 12 -5 16 -16 10 -8 27 399 850 187 376 337 686 335 688 -2 3 -7 -5 -11 -18z m-204 -396 c-11 -21 -20 -35 -21 -31 0 12 33 78 38 74 2 -2 -6 -21 -17 -43z m-501 -1177 c0 -2 -7 -9 -15 -16 -13 -11 -14 -10 -9 4 5 14 24 23 24 12z m-66 -58 c-15 -15 -29 -28 -30 -28 -1 0 5 18 13 40 13 32 19 38 30 28 11 -9 9 -16 -13 -40z"/>
    <path fill="#1078E0" d="M1870 2739 c0 -5 5 -7 10 -4 6 3 10 8 10 11 0 2 -4 4 -10 4 -5 0 -10 -5 -10 -11z"/>
    <path fill="#1078E0" d="M3255 2680 c4 -6 11 -8 16 -5 14 9 11 15 -7 15 -8 0 -12 -5 -9 -10z"/>
    <path fill="#1078E0" d="M6165 2643 c96 -7 203 -7 198 0 -2 4 -57 6 -121 5 -64 -1 -99 -3 -77 -5z"/>
    <path fill="#1078E0" d="M6075 2628 c-3 -7 -4 -328 -3 -713 l3 -700 5 713 c3 391 4 712 2 712 -1 0 -5 -6 -7 -12z"/>
    <path fill="#1078E0" d="M3837 2363 c-11 -11 -8 -20 7 -20 8 0 12 6 9 14 -6 15 -7 15 -16 6z"/>
    <path fill="#1078E0" d="M13345 2361 l70 -6 48 -125 c68 -179 135 -352 172 -450 86 -223 125 -324 125 -327 0 -2 -41 -2 -92 -1 l-91 3 -27 81 c-47 138 -22 125 -237 122 l-186 -3 -38 -100 -38 -100 -85 -3 c-47 -1 -86 0 -86 4 0 27 333 879 348 892 14 11 14 12 0 12 -9 0 -19 -9 -23 -19 -4 -14 -11 -18 -23 -14 -14 6 -15 4 -4 -9 17 -21 -24 -139 -51 -146 -13 -3 -15 -7 -7 -12 7 -5 9 -16 5 -29 -3 -12 -10 -19 -15 -16 -4 3 -14 -2 -21 -11 -10 -13 -10 -17 0 -24 21 -12 -35 -151 -58 -142 -13 5 -14 3 -3 -10 11 -13 8 -27 -14 -82 -14 -36 -30 -63 -35 -60 -6 3 -7 -5 -3 -22 5 -19 4 -25 -4 -20 -8 5 -10 1 -5 -10 4 -11 2 -15 -4 -11 -17 11 -38 -20 -24 -36 8 -10 4 -32 -17 -86 -15 -39 -31 -68 -35 -64 -5 4 -5 -1 -1 -11 5 -14 4 -17 -5 -11 -10 6 -11 2 -6 -15 4 -14 3 -20 -3 -16 -5 3 -15 -1 -22 -9 -11 -14 -7 -19 13 -16 4 0 7 -4 7 -9 0 -6 7 -10 16 -10 8 0 12 -4 9 -10 -4 -6 22 -9 72 -9 65 2 71 3 38 9 l-40 7 46 2 47 1 22 63 c13 34 34 70 46 80 23 18 35 55 14 42 -5 -3 -10 1 -10 9 0 14 24 16 184 16 l185 0 21 -57 c14 -37 20 -70 16 -91 -4 -26 -2 -33 9 -28 8 3 17 -3 20 -15 6 -17 16 -19 106 -19 57 0 99 4 99 10 0 5 -9 33 -21 62 -17 43 -18 57 -9 72 11 17 9 23 -13 40 -14 12 -40 54 -57 95 -32 78 -36 101 -20 101 6 0 10 5 10 10 0 6 -8 10 -17 8 -14 -2 -28 25 -70 136 -29 76 -51 148 -50 160 1 11 -3 20 -10 19 -6 -1 -24 32 -39 75 -15 42 -33 92 -40 110 l-13 32 -73 -2 -73 -2 70 -5z"/>
    <path fill="#1078E0" d="M13897 2363 c-4 -3 -7 -202 -7 -442 0 -285 -4 -431 -10 -421 -6 9 -10 10 -10 3 0 -6 -3 -18 -6 -27 -4 -10 3 -19 20 -27 14 -7 23 -16 20 -20 -3 -5 34 -8 83 -7 73 1 80 2 43 8 l-45 7 53 1 52 2 0 459 c0 293 -4 462 -10 466 -5 3 -18 1 -27 -5 -16 -9 -15 -10 5 -5 l22 6 0 -455 0 -456 -90 0 -90 0 2 453 3 452 55 6 55 6 -56 1 c-31 1 -59 -1 -62 -5z"/>
    <path fill="#1078E0" d="M13872 2255 c0 -16 2 -22 5 -12 2 9 2 23 0 30 -3 6 -5 -1 -5 -18z"/>
    <path fill="#1078E0" d="M5228 2183 c7 -3 16 -2 19 1 4 3 -2 6 -13 5 -11 0 -14 -3 -6 -6z"/>
    <path fill="#1078E0" d="M5310 2180 c-52 -6 -51 -7 30 -8 47 -1 103 -4 125 -7 l40 -5 -35 9 c-60 15 -103 18 -160 11z"/>
    <path fill="#1078E0" d="M8468 2183 c7 -3 16 -2 19 1 4 3 -2 6 -13 5 -11 0 -14 -3 -6 -6z"/>
    <path fill="#1078E0" d="M7265 2171 c115 -8 164 -18 243 -52 26 -11 42 -15 36 -9 -6 6 -44 23 -85 37 -61 21 -95 27 -189 29 l-115 2 110 -7z"/>
    <path fill="#1078E0" d="M8505 2175 c6 -2 60 -5 120 -7 61 -3 99 -1 85 3 -24 7 -225 11 -205 4z"/>
    <path fill="#1078E0" d="M9635 2171 c-16 -3 40 -6 124 -6 83 0 142 3 129 7 -29 8 -214 8 -253 -1z"/>
    <path fill="#1078E0" d="M11890 2170 c63 -4 130 -13 149 -19 19 -6 37 -9 39 -7 12 12 -87 28 -188 31 l-115 3 115 -8z"/>
    <path fill="#1078E0" d="M5157 2158 c2 -5 -1 -8 -8 -8 -7 0 -10 -2 -8 -5 3 -2 27 2 54 9 l50 14 -46 -2 c-26 0 -45 -4 -42 -8z"/>
    <path fill="#1078E0" d="M7108 2163 c6 -2 18 -2 25 0 6 3 1 5 -13 5 -14 0 -19 -2 -12 -5z"/>
    <path fill="#1078E0" d="M8458 2163 c7 -3 16 -2 19 1 4 3 -2 6 -13 5 -11 0 -14 -3 -6 -6z"/>
    <path fill="#1078E0" d="M8760 2160 c-21 -7 -22 -8 -5 -9 11 -1 54 -17 94 -36 89 -43 183 -134 226 -218 29 -57 30 -58 11 -73 -21 -15 -10 -20 13 -5 9 6 11 18 7 34 -4 16 -1 28 7 31 7 4 7 5 -3 3 -8 -2 -29 19 -50 52 -49 75 -131 147 -212 186 -37 18 -64 35 -61 39 7 7 7 7 -27 -4z"/>
    <path fill="#1078E0" d="M11060 2160 c-15 -5 -1 -6 37 -3 33 3 73 3 87 -1 l26 -6 2 -148 c1 -81 3 -122 5 -92 3 38 7 50 13 40 7 -11 10 -7 10 15 0 23 -3 27 -10 15 -7 -10 -10 15 -10 81 0 92 -1 97 -22 103 -31 8 -107 6 -138 -4z"/>
    <path fill="#1078E0" d="M11738 2163 c6 -2 18 -2 25 0 6 3 1 5 -13 5 -14 0 -19 -2 -12 -5z"/>
    <path fill="#1078E0" d="M13305 2153 c-4 -10 -29 -79 -55 -153 -27 -74 -53 -147 -59 -162 -10 -25 -8 -28 12 -28 31 0 51 15 42 30 -6 10 -11 9 -21 -5 -8 -10 -16 -16 -19 -13 -8 8 26 98 35 93 5 -3 14 4 20 15 7 13 7 20 0 20 -15 0 -12 17 24 114 l32 88 21 -55 c21 -57 20 -107 -1 -107 -6 0 -4 -4 4 -10 9 -5 19 -5 26 1 9 7 19 -10 37 -66 25 -72 25 -75 6 -75 -10 0 -19 -4 -19 -9 0 -5 -8 -12 -17 -14 -10 -3 4 -5 31 -6 35 -1 47 2 43 12 -2 6 -30 84 -62 172 -32 88 -61 164 -65 168 -4 5 -11 0 -15 -10z"/>
    <path fill="#1078E0" d="M730 2150 c0 -5 5 -10 11 -10 5 0 7 5 4 10 -3 6 -8 10 -11 10 -2 0 -4 -4 -4 -10z"/>
    <path fill="#1078E0" d="M5518 2153 c7 -3 16 -2 19 1 4 3 -2 6 -13 5 -11 0 -14 -3 -6 -6z"/>
    <path fill="#1078E0" d="M7035 2145 c-39 -17 -21 -18 25 0 19 7 28 14 20 14 -8 0 -28 -6 -45 -14z"/>
    <path fill="#1078E0" d="M8390 2150 c-11 -8 -7 -9 15 -4 37 8 45 14 19 14 -10 0 -26 -5 -34 -10z"/>
    <path fill="#1078E0" d="M9513 2130 c-35 -16 -63 -32 -63 -35 0 -3 19 4 42 16 23 12 58 27 77 34 20 8 29 14 21 14 -8 1 -43 -12 -77 -29z"/>
    <path fill="#1078E0" d="M9921 2156 c2 -2 18 -6 34 -10 22 -5 26 -4 15 4 -14 9 -59 15 -49 6z"/>
    <path fill="#1078E0" d="M11698 2153 c7 -3 16 -2 19 1 4 3 -2 6 -13 5 -11 0 -14 -3 -6 -6z"/>
    <path fill="#1078E0" d="M10510 1565 l0 -585 153 2 152 2 -148 3 -147 4 2 579 c2 319 0 580 -4 580 -5 0 -8 -263 -8 -585z"/>
    <path fill="#1078E0" d="M10623 2143 c9 -2 23 -2 30 0 6 3 -1 5 -18 5 -16 0 -22 -2 -12 -5z"/>
    <path fill="#1078E0" d="M10768 2143 l32 -4 0 -90 c0 -50 3 -88 8 -86 4 3 5 45 2 94 l-5 88 -35 1 -35 2 33 -5z"/>
    <path fill="#1078E0" d="M11650 2140 c-8 -5 -10 -10 -5 -10 6 0 17 5 25 10 8 5 11 10 5 10 -5 0 -17 -5 -25 -10z"/>
    <path fill="#1078E0" d="M5090 2125 c-14 -8 -20 -14 -15 -14 6 0 21 6 35 14 14 8 21 14 15 14 -5 0 -21 -6 -35 -14z"/>
    <path fill="#1078E0" d="M5630 2109 c30 -16 75 -49 100 -72 l45 -42 -40 43 c-37 41 -128 102 -150 102 -5 0 15 -14 45 -31z"/>
    <path fill="#1078E0" d="M8323 2125 c-18 -8 -33 -16 -33 -19 0 -5 71 22 79 30 9 8 -15 3 -46 -11z"/>
    <path fill="#1078E0" d="M10035 2113 c28 -14 68 -39 90 -55 l40 -30 -35 32 c-33 30 -120 81 -137 80 -4 -1 15 -13 42 -27z"/>
    <path fill="#1078E0" d="M10958 2124 c-39 -21 -35 -28 5 -8 37 19 44 24 31 24 -5 -1 -21 -8 -36 -16z"/>
    <path fill="#1078E0" d="M12140 2110 c31 -15 80 -50 110 -76 30 -27 45 -37 32 -23 -12 14 -20 29 -17 32 3 4 2 5 -1 2 -4 -2 -23 8 -43 24 -37 29 -114 71 -128 71 -4 -1 17 -14 47 -30z"/>
    <path fill="#1078E0" d="M3610 2120 c0 -5 5 -10 10 -10 6 0 10 5 10 10 0 6 -4 10 -10 10 -5 0 -10 -4 -10 -10z"/>
    <path fill="#1078E0" d="M6958 2114 c-39 -21 -35 -28 5 -8 37 19 44 24 31 24 -5 -1 -21 -8 -36 -16z"/>
    <path fill="#1078E0" d="M10820 2120 c0 -5 5 -10 10 -10 6 0 10 5 10 10 0 6 -4 10 -10 10 -5 0 -10 -4 -10 -10z"/>
    <path fill="#1078E0" d="M11586 2121 c2 -2 -4 -10 -14 -18 -11 -9 -5 -8 18 3 45 21 46 22 16 20 -13 0 -23 -3 -20 -5z"/>
    <path fill="#1078E0" d="M5023 2084 l-28 -25 33 22 c17 13 32 24 32 26 0 8 -11 1 -37 -23z"/>
    <path fill="#1078E0" d="M7560 2098 c3 -3 28 -23 55 -43 29 -22 41 -28 28 -14 -12 13 -37 33 -55 43 -18 11 -31 17 -28 14z"/>
    <path fill="#1078E0" d="M8249 2079 l-24 -20 28 17 c15 9 27 18 27 20 0 8 -8 4 -31 -17z"/>
    <path fill="#1078E0" d="M10875 2058 l-40 -43 43 40 c39 36 47 45 39 45 -2 0 -21 -19 -42 -42z"/>
    <path fill="#1078E0" d="M9409 2063 l-24 -28 28 24 c15 14 27 26 27 28 0 8 -8 1 -31 -24z"/>
    <path fill="#1078E0" d="M10827 2077 c-11 -29 -9 -53 4 -40 6 6 9 21 7 34 -3 21 -4 22 -11 6z"/>
    <path fill="#1078E0" d="M13315 2080 c-4 -7 1 -21 14 -33 24 -24 27 -14 7 22 -9 17 -15 20 -21 11z"/>
    <path fill="#1078E0" d="M13550 2070 c0 -5 5 -10 11 -10 5 0 7 5 4 10 -3 6 -8 10 -11 10 -2 0 -4 -4 -4 -10z"/>
    <path fill="#1078E0" d="M4973 2063 c4 -3 -1 -16 -10 -27 -18 -21 -18 -21 4 -2 20 16 23 36 6 36 -4 0 -3 -3 0 -7z"/>
    <path fill="#1078E0" d="M6839 2029 l-44 -41 48 38 c26 21 47 40 47 41 0 8 -11 0 -51 -38z"/>
    <path fill="#1078E0" d="M11453 2008 c-33 -35 -65 -74 -72 -88 l-12 -25 18 25 c10 14 44 53 77 88 33 34 57 62 54 62 -3 0 -32 -28 -65 -62z"/>
    <path fill="#1078E0" d="M8169 2013 c-39 -42 -90 -105 -63 -78 30 29 116 125 113 125 -3 0 -25 -21 -50 -47z"/>
    <path fill="#1078E0" d="M7685 2000 c5 -8 17 -24 26 -35 10 -11 34 -47 53 -79 20 -33 36 -55 36 -50 0 6 -14 32 -31 59 -17 27 -32 56 -34 65 -1 8 -7 15 -12 15 -6 0 -19 9 -29 20 -11 12 -15 14 -9 5z"/>
    <path fill="#1078E0" d="M9337 1988 c-33 -44 -50 -78 -43 -86 3 -3 6 -1 6 5 0 6 15 34 34 62 39 57 40 69 3 19z"/>
    <path fill="#1078E0" d="M10160 2016 c0 -2 8 -10 18 -17 15 -13 16 -12 3 4 -13 16 -21 21 -21 13z"/>
    <path fill="#1078E0" d="M4917 2002 c16 -10 -37 -100 -57 -95 -10 3 -11 2 -4 -4 7 -4 13 -17 15 -27 2 -11 9 -20 14 -21 6 -1 7 0 3 3 -16 8 -7 40 25 93 31 52 32 55 13 57 -12 0 -16 -2 -9 -6z"/>
    <path fill="#1078E0" d="M5792 1945 c12 -24 23 -43 26 -41 4 5 -36 86 -43 86 -3 0 5 -20 17 -45z"/>
    <path fill="#1078E0" d="M6766 1949 c-15 -17 -33 -45 -42 -63 -8 -17 -9 -22 -2 -12 7 10 28 38 45 62 38 51 37 58 -1 13z"/>
    <path fill="#1078E0" d="M10207 1945 c9 -19 18 -33 21 -31 4 5 -26 66 -33 66 -3 0 3 -16 12 -35z"/>
    <path fill="#1078E0" d="M12317 1955 c34 -50 62 -110 83 -182 11 -38 18 -51 14 -30 -3 21 -8 46 -11 54 -5 12 -3 14 7 8 8 -5 11 -3 9 4 -2 6 -7 10 -11 9 -4 -2 -23 29 -43 68 -19 40 -43 78 -52 85 -13 10 -12 6 4 -16z"/>
    <path fill="#1078E0" d="M9743 1933 c9 -2 23 -2 30 0 6 3 -1 5 -18 5 -16 0 -22 -2 -12 -5z"/>
    <path fill="#1078E0" d="M11853 1933 c9 -2 25 -2 35 0 9 3 1 5 -18 5 -19 0 -27 -2 -17 -5z"/>
    <path fill="#1078E0" d="M5251 1921 c-11 -7 -9 -10 8 -16 13 -4 25 -4 28 -1 4 3 -2 6 -13 7 -15 1 -13 3 6 9 21 7 21 8 5 9 -11 0 -26 -3 -34 -8z"/>
    <path fill="#1078E0" d="M5405 1920 c12 -5 14 -9 6 -9 -8 -1 -12 -3 -10 -6 3 -2 16 -1 29 2 22 6 23 7 4 14 -27 11 -54 10 -29 -1z"/>
    <path fill="#1078E0" d="M9660 1920 c-11 -8 -7 -9 15 -4 37 8 45 14 19 14 -10 0 -26 -5 -34 -10z"/>
    <path fill="#1078E0" d="M9808 1923 c6 -2 18 -2 25 0 6 3 1 5 -13 5 -14 0 -19 -2 -12 -5z"/>
    <path fill="#1078E0" d="M11798 1923 c7 -3 16 -2 19 1 4 3 -2 6 -13 5 -11 0 -14 -3 -6 -6z"/>
    <path fill="#1078E0" d="M11928 1923 c7 -3 16 -2 19 1 4 3 -2 6 -13 5 -11 0 -14 -3 -6 -6z"/>
    <path fill="#1078E0" d="M8080 1900 c-6 -11 -8 -20 -6 -20 3 0 10 9 16 20 6 11 8 20 6 20 -3 0 -10 -9 -16 -20z"/>
    <path fill="#1078E0" d="M9835 1909 c-16 -8 -15 -8 8 -4 16 3 26 2 24 -2 -3 -5 3 -9 14 -9 19 0 19 1 3 13 -20 15 -22 15 -49 2z"/>
    <path fill="#1078E0" d="M5179 1873 l-34 -38 40 35 c22 19 42 36 44 38 2 1 0 2 -5 2 -6 0 -26 -17 -45 -37z"/>
    <path fill="#1078E0" d="M7228 1903 c12 -2 32 -2 45 0 12 2 2 4 -23 4 -25 0 -35 -2 -22 -4z"/>
    <path fill="#1078E0" d="M8531 1901 c-13 -3 14 -6 59 -6 45 0 72 3 59 6 -13 4 -40 7 -59 7 -19 0 -46 -3 -59 -7z"/>
    <path fill="#1078E0" d="M9597 1880 c-19 -16 -40 -43 -47 -59 -6 -17 -19 -32 -28 -34 -15 -4 -15 -5 0 -6 11 -1 25 14 38 38 10 22 34 51 52 65 18 14 30 26 26 26 -4 0 -23 -13 -41 -30z"/>
    <path fill="#1078E0" d="M11928 1903 c7 -3 16 -2 19 1 4 3 -2 6 -13 5 -11 0 -14 -3 -6 -6z"/>
    <path fill="#1078E0" d="M11993 1895 c0 -14 24 -28 39 -22 4 1 22 -11 40 -28 l33 -30 -30 33 c-38 43 -82 67 -82 47z"/>
    <path fill="#1078E0" d="M5506 1869 c16 -20 31 -34 33 -32 3 2 -10 18 -29 36 l-34 32 30 -36z"/>
    <path fill="#1078E0" d="M7112 1874 c-28 -14 -65 -42 -83 -62 -36 -41 -79 -127 -78 -157 0 -11 7 1 15 26 10 33 20 48 36 53 18 5 20 8 9 15 -11 7 -10 14 8 40 30 41 108 96 85 59 -4 -7 -3 -8 5 -4 6 4 9 11 6 16 -3 5 16 16 42 24 26 8 39 15 27 15 -11 1 -43 -11 -72 -25z"/>
    <path fill="#1078E0" d="M7308 1893 c7 -3 16 -2 19 1 4 3 -2 6 -13 5 -11 0 -14 -3 -6 -6z"/>
    <path fill="#1078E0" d="M10236 1875 c8 -37 14 -45 14 -19 0 10 -5 26 -10 34 -8 11 -9 7 -4 -15z"/>
    <path fill="#1078E0" d="M11679 1863 c-39 -35 -79 -99 -79 -125 0 -7 11 11 25 40 16 35 29 51 36 46 7 -4 9 -3 5 4 -3 6 11 24 31 41 21 17 34 31 30 31 -4 0 -25 -17 -48 -37z"/>
    <path fill="#1078E0" d="M5821 1874 c0 -11 3 -14 6 -6 3 7 2 16 -1 19 -3 4 -6 -2 -5 -13z"/>
    <path fill="#1078E0" d="M7238 1883 c12 -2 30 -2 40 0 9 3 -1 5 -23 4 -22 0 -30 -2 -17 -4z"/>
    <path fill="#1078E0" d="M7369 1874 c19 -8 41 -19 48 -26 7 -6 13 -8 13 -4 0 10 -63 46 -80 46 -8 -1 0 -7 19 -16z"/>
    <path fill="#1078E0" d="M8588 1883 c7 -3 16 -2 19 1 4 3 -2 6 -13 5 -11 0 -14 -3 -6 -6z"/>
    <path fill="#1078E0" d="M9280 1876 c0 -8 4 -17 9 -20 5 -4 7 3 4 14 -6 23 -13 26 -13 6z"/>
    <path fill="#1078E0" d="M9928 1866 c26 -33 28 -48 7 -40 -8 4 -15 2 -15 -4 0 -15 30 -24 31 -9 1 7 5 1 9 -13 6 -18 8 -20 9 -7 1 23 -23 70 -46 88 -12 10 -11 5 5 -15z"/>
    <path fill="#1078E0" d="M11350 1869 c-7 -11 -10 -23 -7 -25 2 -2 9 7 15 21 14 30 7 33 -8 4z"/>
    <path fill="#1078E0" d="M8406 1839 c-25 -23 -51 -51 -57 -63 -6 -11 2 -6 17 13 15 18 45 46 67 62 22 16 35 29 30 29 -6 0 -31 -18 -57 -41z"/>
    <path fill="#1078E0" d="M8734 1862 c3 -6 3 -12 -1 -15 -5 -2 -2 -2 5 0 22 5 36 -8 21 -19 -11 -8 -10 -9 3 -5 24 8 47 -21 27 -35 -11 -8 -11 -9 3 -5 12 4 23 -5 37 -28 19 -32 22 -34 51 -24 17 6 29 13 27 15 -2 3 -16 0 -31 -5 -23 -9 -27 -7 -41 18 -20 39 -63 89 -87 102 -13 7 -18 7 -14 1z"/>
    <path fill="#1078E0" d="M11005 1861 c-11 -4 18 -6 65 -4 116 6 131 11 35 11 -44 0 -89 -3 -100 -7z"/>
    <path fill="#1078E0" d="M5832 1825 c0 -16 2 -22 5 -12 2 9 2 23 0 30 -3 6 -5 -1 -5 -18z"/>
    <path fill="#1078E0" d="M6689 1816 c-8 -23 -16 -31 -20 -24 -5 7 -11 9 -16 5 -4 -5 -2 -12 5 -16 8 -5 11 -18 7 -37 -3 -16 5 0 19 36 14 35 23 66 21 68 -2 2 -9 -13 -16 -32z"/>
    <path fill="#1078E0" d="M8031 1795 c-12 -31 -21 -63 -21 -73 0 -9 11 15 24 53 29 84 27 99 -3 20z"/>
    <path fill="#1078E0" d="M10919 1818 c-23 -18 -49 -44 -58 -58 -9 -14 3 -5 26 18 26 28 46 41 54 36 8 -4 10 -3 5 5 -5 8 -1 11 16 8 12 -2 17 -2 9 0 -12 4 -12 6 0 14 9 5 10 9 2 9 -6 0 -30 -15 -54 -32z"/>
    <path fill="#1078E0" d="M11038 1843 c7 -3 16 -2 19 1 4 3 -2 6 -13 5 -11 0 -14 -3 -6 -6z"/>
    <path fill="#1078E0" d="M11148 1843 c7 -3 16 -2 19 1 4 3 -2 6 -13 5 -11 0 -14 -3 -6 -6z"/>
    <path fill="#1078E0" d="M4953 1828 c15 -5 25 -13 23 -17 -2 -3 14 -7 37 -7 l42 -1 -55 18 c-57 19 -96 25 -47 7z"/>
    <path fill="#1078E0" d="M7460 1810 c11 -16 26 -33 32 -36 7 -4 -1 9 -16 29 -34 44 -46 50 -16 7z"/>
    <path fill="#1078E0" d="M10252 1800 c0 -19 2 -27 5 -17 2 9 2 25 0 35 -3 9 -5 1 -5 -18z"/>
    <path fill="#1078E0" d="M11326 1815 c-3 -9 -6 -22 -5 -28 0 -7 5 -1 10 12 5 13 8 26 5 28 -2 2 -6 -3 -10 -12z"/>
    <path fill="#1078E0" d="M5547 1770 c3 -30 7 -57 9 -59 8 -9 2 75 -6 94 -5 12 -6 -1 -3 -35z"/>
    <path fill="#1078E0" d="M7800 1815 c0 -5 5 -17 10 -25 5 -8 10 -10 10 -5 0 6 -5 17 -10 25 -5 8 -10 11 -10 5z"/>
    <path fill="#1078E0" d="M9408 1813 c7 -3 16 -2 19 1 4 3 -2 6 -13 5 -11 0 -14 -3 -6 -6z"/>
    <path fill="#1078E0" d="M5130 1802 c0 -7 -10 -13 -22 -13 -19 -1 -20 -2 -4 -6 20 -5 44 12 33 24 -4 3 -7 1 -7 -5z"/>
    <path fill="#1078E0" d="M12106 1797 c3 -10 9 -15 12 -12 3 3 0 11 -7 18 -10 9 -11 8 -5 -6z"/>
    <path fill="#1078E0" d="M13273 1803 c15 -2 37 -2 50 0 12 2 0 4 -28 4 -27 0 -38 -2 -22 -4z"/>
    <path fill="#1078E0" d="M9478 1793 c7 -3 16 -2 19 1 4 3 -2 6 -13 5 -11 0 -14 -3 -6 -6z"/>
    <path fill="#1078E0" d="M8982 1781 c-11 -7 -10 -9 3 -14 9 -4 14 -3 10 2 -3 5 1 12 7 14 7 3 9 6 3 6 -5 0 -16 -3 -23 -8z"/>
    <path fill="#1078E0" d="M5867 1773 c-4 -3 -7 -148 -7 -321 1 -173 4 -312 7 -309 4 5 13 637 8 637 -1 0 -5 -3 -8 -7z"/>
    <path fill="#1078E0" d="M5842 1384 l-2 -392 -117 -4 c-155 -5 -153 -6 -155 51 -1 46 -1 46 -5 7 -3 -22 -2 -50 1 -63 6 -23 8 -23 134 -21 l127 2 -95 6 -95 6 103 2 c71 1 104 6 107 15 3 6 4 185 2 397 l-2 385 -3 -391z"/>
    <path fill="#1078E0" d="M7821 1760 c0 -8 4 -24 8 -34 7 -19 8 -18 14 4 3 13 4 26 2 29 -3 2 -5 -2 -6 -10 0 -8 -4 -6 -9 6 -5 13 -9 14 -9 5z"/>
    <path fill="#1078E0" d="M8930 1760 c-8 -5 -10 -10 -5 -10 6 0 17 5 25 10 8 5 11 10 5 10 -5 0 -17 -5 -25 -10z"/>
    <path fill="#1078E0" d="M10280 1437 c0 -252 -3 -343 -12 -358 -10 -17 -10 -23 0 -26 6 -3 12 -16 12 -29 0 -13 4 -24 9 -24 11 0 11 744 0 762 -5 7 -9 -139 -9 -325z"/>
    <path fill="#1078E0" d="M11300 1716 c-6 -31 -9 -68 -7 -83 3 -25 4 -24 6 7 1 19 6 55 12 79 5 24 8 46 5 48 -2 3 -9 -20 -16 -51z"/>
    <path fill="#1078E0" d="M12126 1738 l6 -38 -265 0 c-203 0 -267 3 -270 13 -3 7 -6 5 -6 -5 -1 -17 18 -18 274 -18 l275 0 -1 23 c0 12 -4 31 -9 42 -7 14 -8 9 -4 -17z"/>
    <path fill="#1078E0" d="M7511 1740 c14 -31 19 -36 19 -24 0 6 -7 19 -16 30 -14 18 -14 18 -3 -6z"/>
    <path fill="#1078E0" d="M9961 1724 c0 -11 3 -14 6 -6 3 7 2 16 -1 19 -3 4 -6 -2 -5 -13z"/>
    <path fill="#1078E0" d="M5504 1715 c4 -11 -2 -15 -21 -15 -14 0 -24 -3 -20 -6 3 -4 22 -3 42 0 31 6 34 9 21 21 -19 19 -30 19 -22 0z"/>
    <path fill="#1078E0" d="M8311 1699 c-6 -18 -11 -39 -10 -48 0 -9 7 4 14 29 16 51 13 67 -4 19z"/>
    <path fill="#1078E0" d="M9928 1723 c7 -3 16 -2 19 1 4 3 -2 6 -13 5 -11 0 -14 -3 -6 -6z"/>
    <path fill="#1078E0" d="M5408 1703 c7 -3 16 -2 19 1 4 3 -2 6 -13 5 -11 0 -14 -3 -6 -6z"/>
    <path fill="#1078E0" d="M9895 1700 c-27 -7 -28 -8 -5 -8 14 0 34 3 45 8 25 11 2 11 -40 0z"/>
    <path fill="#1078E0" d="M6651 1684 c0 -11 3 -14 6 -6 3 7 2 16 -1 19 -3 4 -6 -2 -5 -13z"/>
    <path fill="#1078E0" d="M7843 1665 c0 -22 2 -30 4 -17 2 12 2 30 0 40 -3 9 -5 -1 -4 -23z"/>
    <path fill="#1078E0" d="M8002 1675 c0 -16 2 -22 5 -12 2 9 2 23 0 30 -3 6 -5 -1 -5 -18z"/>
    <path fill="#1078E0" d="M12451 1684 c0 -11 3 -14 6 -6 3 7 2 16 -1 19 -3 4 -6 -2 -5 -13z"/>
    <path fill="#1078E0" d="M5199 1682 c9 -7 0 -11 -34 -16 -26 -4 -45 -9 -43 -12 3 -2 26 -1 52 2 44 6 57 23 25 32 -11 3 -12 2 0 -6z"/>
    <path fill="#1078E0" d="M5383 1683 c15 -2 37 -2 50 0 12 2 0 4 -28 4 -27 0 -38 -2 -22 -4z"/>
    <path fill="#1078E0" d="M8327 1684 c-4 -4 -7 -14 -7 -23 0 -11 3 -12 11 -4 6 6 10 16 7 23 -2 6 -7 8 -11 4z"/>
    <path fill="#1078E0" d="M9793 1683 c15 -2 37 -2 50 0 12 2 0 4 -28 4 -27 0 -38 -2 -22 -4z"/>
    <path fill="#1078E0" d="M12420 1590 l0 -100 -415 0 -415 0 1 -32 c2 -31 2 -31 6 -5 l4 27 415 0 414 0 0 105 c0 58 -2 105 -5 105 -3 0 -5 -45 -5 -100z"/>
    <path fill="#1078E0" d="M5258 1673 c12 -2 32 -2 45 0 12 2 2 4 -23 4 -25 0 -35 -2 -22 -4z"/>
    <path fill="#1078E0" d="M9678 1673 c12 -2 32 -2 45 0 12 2 2 4 -23 4 -25 0 -35 -2 -22 -4z"/>
    <path fill="#1078E0" d="M10821 1664 c0 -11 3 -14 6 -6 3 7 2 16 -1 19 -3 4 -6 -2 -5 -13z"/>
    <path fill="#1078E0" d="M13700 1670 c0 -5 5 -10 10 -10 6 0 10 5 10 10 0 6 -4 10 -10 10 -5 0 -10 -4 -10 -10z"/>
    <path fill="#1078E0" d="M6621 1654 c0 -11 3 -14 6 -6 3 7 2 16 -1 19 -3 4 -6 -2 -5 -13z"/>
    <path fill="#1078E0" d="M7542 1645 c0 -16 2 -22 5 -12 2 9 2 23 0 30 -3 6 -5 -1 -5 -18z"/>
    <path fill="#1078E0" d="M9603 1663 c9 -2 23 -2 30 0 6 3 -1 5 -18 5 -16 0 -22 -2 -12 -5z"/>
    <path fill="#1078E0" d="M13871 1654 c0 -11 3 -14 6 -6 3 7 2 16 -1 19 -3 4 -6 -2 -5 -13z"/>
    <path fill="#1078E0" d="M9538 1653 c6 -2 18 -2 25 0 6 3 1 5 -13 5 -14 0 -19 -2 -12 -5z"/>
    <path fill="#1078E0" d="M12441 1644 c0 -11 3 -14 6 -6 3 7 2 16 -1 19 -3 4 -6 -2 -5 -13z"/>
    <path fill="#1078E0" d="M5065 1640 c-13 -5 -14 -9 -5 -9 8 0 24 4 35 9 13 5 14 9 5 9 -8 0 -24 -4 -35 -9z"/>
    <path fill="#1078E0" d="M6644 1560 c0 -52 1 -74 3 -47 2 26 2 68 0 95 -2 26 -3 4 -3 -48z"/>
    <path fill="#1078E0" d="M10812 1610 c0 -19 2 -27 5 -17 2 9 2 25 0 35 -3 9 -5 1 -5 -18z"/>
    <path fill="#1078E0" d="M13450 1630 c0 -5 7 -10 15 -10 8 0 15 5 15 10 0 6 -7 10 -15 10 -8 0 -15 -4 -15 -10z"/>
    <path fill="#1078E0" d="M4998 1614 c-39 -21 -35 -28 5 -8 37 19 44 24 31 24 -5 -1 -21 -8 -36 -16z"/>
    <path fill="#1078E0" d="M9430 1620 c-8 -5 -10 -10 -5 -10 6 0 17 5 25 10 8 5 11 10 5 10 -5 0 -17 -5 -25 -10z"/>
    <path fill="#1078E0" d="M6941 1569 c1 -30 5 -67 9 -84 4 -17 5 5 2 50 -6 93 -13 114 -11 34z"/>
    <path fill="#1078E0" d="M7853 1565 c0 -33 2 -45 4 -27 2 18 2 45 0 60 -2 15 -4 0 -4 -33z"/>
    <path fill="#1078E0" d="M7993 1550 c0 -41 2 -58 4 -37 2 20 2 54 0 75 -2 20 -4 3 -4 -38z"/>
    <path fill="#1078E0" d="M8293 1565 c0 -33 2 -45 4 -27 2 18 2 45 0 60 -2 15 -4 0 -4 -33z"/>
    <path fill="#1078E0" d="M7533 1570 c0 -25 2 -35 4 -22 2 12 2 32 0 45 -2 12 -4 2 -4 -23z"/>
    <path fill="#1078E0" d="M7552 1580 c-1 -19 -4 -53 -7 -75 l-5 -40 11 40 c5 22 8 56 6 75 l-4 35 -1 -35z"/>
    <path fill="#1078E0" d="M9363 1581 c-37 -27 -70 -65 -87 -101 -4 -8 1 -4 11 10 23 33 72 81 103 102 14 9 22 17 19 17 -3 1 -24 -12 -46 -28z"/>
    <path fill="#1078E0" d="M4901 1534 c-28 -30 -51 -60 -51 -65 0 -6 -3 -8 -7 -6 -5 3 -9 -11 -9 -32 l-2 -36 15 43 c8 23 37 67 65 97 27 30 48 55 45 55 -3 0 -28 -25 -56 -56z"/>
    <path fill="#1078E0" d="M12442 1515 c0 -16 2 -22 5 -12 2 9 2 23 0 30 -3 6 -5 -1 -5 -18z"/>
    <path fill="#1078E0" d="M11292 1480 c0 -19 2 -27 5 -17 2 9 2 25 0 35 -3 9 -5 1 -5 -18z"/>
    <path fill="#1078E0" d="M5527 1493 c18 -4 23 -12 26 -51 l3 -47 2 53 c2 51 1 52 -25 51 -23 -1 -24 -2 -6 -6z"/>
    <path fill="#1078E0" d="M7840 1471 c0 -16 -9 -58 -20 -92 -10 -35 -17 -65 -15 -68 3 -2 5 1 5 8 0 7 5 9 12 5 7 -4 8 -3 4 4 -4 6 -4 23 0 37 4 18 9 23 14 15 5 -9 9 -9 14 -1 4 6 2 11 -3 11 -8 0 -9 19 -5 55 4 30 4 55 0 55 -3 0 -6 -13 -6 -29z"/>
    <path fill="#1078E0" d="M9885 1490 c-47 -7 -46 -7 15 -5 63 3 64 3 35 -11 -29 -14 -29 -14 -3 -9 16 3 28 0 31 -8 3 -6 6 0 6 16 1 29 3 29 -84 17z"/>
    <path fill="#1078E0" d="M5428 1483 c12 -2 32 -2 45 0 12 2 2 4 -23 4 -25 0 -35 -2 -22 -4z"/>
    <path fill="#1078E0" d="M6970 1476 c0 -9 5 -16 10 -16 6 0 10 4 10 9 0 6 -4 13 -10 16 -5 3 -10 -1 -10 -9z"/>
    <path fill="#1078E0" d="M7861 1474 c0 -11 3 -14 6 -6 3 7 2 16 -1 19 -3 4 -6 -2 -5 -13z"/>
    <path fill="#1078E0" d="M8301 1480 c0 -19 17 -59 18 -42 1 7 6 10 11 7 6 -3 10 1 10 9 0 18 -20 32 -21 14 0 -7 -4 -4 -9 7 -5 13 -9 14 -9 5z"/>
    <path fill="#1078E0" d="M1868 1475 c-4 -4 -31 -10 -60 -15 -43 -6 -33 -7 52 -6 58 0 143 -3 190 -7 47 -5 83 -7 80 -4 -3 3 -52 10 -110 16 -58 6 -114 13 -125 16 -11 4 -23 3 -27 0z"/>
    <path fill="#1078E0" d="M5328 1471 c12 -7 62 -4 62 5 0 2 -17 4 -37 4 -24 0 -33 -3 -25 -9z"/>
    <path fill="#1078E0" d="M9758 1473 c12 -2 30 -2 40 0 9 3 -1 5 -23 4 -22 0 -30 -2 -17 -4z"/>
    <path fill="#1078E0" d="M5235 1460 c-14 -7 -8 -8 20 -3 22 3 42 7 44 9 9 8 -45 2 -64 -6z"/>
    <path fill="#1078E0" d="M5428 1463 c6 -2 18 -2 25 0 6 3 1 5 -13 5 -14 0 -19 -2 -12 -5z"/>
    <path fill="#1078E0" d="M5495 1460 c4 -6 11 -8 16 -5 14 9 11 15 -7 15 -8 0 -12 -5 -9 -10z"/>
    <path fill="#1078E0" d="M7976 1453 c-6 -14 -5 -15 5 -6 7 7 10 15 7 18 -3 3 -9 -2 -12 -12z"/>
    <path fill="#1078E0" d="M8002 1450 c0 -14 2 -19 5 -12 2 6 2 18 0 25 -3 6 -5 1 -5 -13z"/>
    <path fill="#1078E0" d="M9688 1463 c6 -2 18 -2 25 0 6 3 1 5 -13 5 -14 0 -19 -2 -12 -5z"/>
    <path fill="#1078E0" d="M11823 1463 c108 -2 286 -2 395 0 108 1 19 2 -198 2 -217 0 -306 -1 -197 -2z"/>
    <path fill="#1078E0" d="M6652 1440 c0 -14 2 -19 5 -12 2 6 2 18 0 25 -3 6 -5 1 -5 -13z"/>
    <path fill="#1078E0" d="M7513 1409 c-12 -27 -20 -49 -18 -49 8 0 46 81 43 90 -2 4 -13 -14 -25 -41z"/>
    <path fill="#1078E0" d="M9256 1445 c-9 -26 -7 -32 5 -12 6 10 9 21 6 23 -2 3 -7 -2 -11 -11z"/>
    <path fill="#1078E0" d="M9646 1449 c4 -7 0 -9 -14 -5 -15 5 -31 -2 -56 -25 -20 -17 -36 -35 -36 -39 0 -4 15 7 34 26 31 31 65 47 51 24 -3 -5 -2 -10 4 -10 5 0 13 5 16 10 3 6 18 10 33 11 24 0 25 1 7 9 -29 12 -47 12 -39 -1z"/>
    <path fill="#1078E0" d="M1708 1443 c6 -2 18 -2 25 0 6 3 1 5 -13 5 -14 0 -19 -2 -12 -5z"/>
    <path fill="#1078E0" d="M5185 1440 c-3 -6 1 -7 9 -4 18 7 21 14 7 14 -6 0 -13 -4 -16 -10z"/>
    <path fill="#1078E0" d="M1567 1414 c-44 -14 -77 -27 -74 -30 2 -3 17 0 33 7 16 6 61 19 99 29 39 11 59 19 45 19 -14 0 -60 -11 -103 -25z"/>
    <path fill="#1078E0" d="M11300 1426 c0 -9 -4 -14 -10 -11 -5 3 -10 -1 -10 -9 0 -8 4 -18 10 -21 11 -6 26 42 16 52 -3 4 -6 -1 -6 -11z"/>
    <path fill="#1078E0" d="M5149 1413 c-13 -16 -12 -17 4 -4 16 13 21 21 13 21 -2 0 -10 -8 -17 -17z"/>
    <path fill="#1078E0" d="M13628 1423 c23 -2 61 -2 85 0 23 2 4 4 -43 4 -47 0 -66 -2 -42 -4z"/>
    <path fill="#1078E0" d="M6970 1414 c0 -11 38 -74 45 -74 2 0 -5 17 -17 38 -27 46 -28 48 -28 36z"/>
    <path fill="#1078E0" d="M8011 1404 c0 -11 3 -14 6 -6 3 7 2 16 -1 19 -3 4 -6 -2 -5 -13z"/>
    <path fill="#1078E0" d="M8320 1414 c0 -15 54 -96 76 -115 10 -8 32 -16 49 -17 29 -2 29 -2 8 13 -12 8 -28 13 -35 10 -17 -7 -38 15 -72 75 -14 25 -26 40 -26 34z"/>
    <path fill="#1078E0" d="M6661 1394 c0 -11 3 -14 6 -6 3 7 2 16 -1 19 -3 4 -6 -2 -5 -13z"/>
    <path fill="#1078E0" d="M8836 1393 c-10 -24 -7 -28 7 -9 12 16 21 14 135 -31 72 -28 122 -54 122 -62 0 -28 -63 -130 -108 -174 -26 -25 -73 -61 -105 -80 -43 -26 -51 -35 -33 -33 13 0 22 3 20 5 -2 2 17 19 44 36 64 44 135 122 166 183 33 66 33 81 -4 93 -17 6 -27 16 -23 22 3 6 1 7 -6 3 -12 -8 -153 43 -147 53 2 3 -11 7 -29 8 -22 1 -35 -4 -39 -14z"/>
    <path fill="#1078E0" d="M9241 1394 c0 -11 3 -14 6 -6 3 7 2 16 -1 19 -3 4 -6 -2 -5 -13z"/>
    <path fill="#1078E0" d="M9962 1390 c0 -14 2 -19 5 -12 2 6 2 18 0 25 -3 6 -5 1 -5 -13z"/>
    <path fill="#1078E0" d="M11635 1390 c-3 -5 -1 -10 4 -10 6 0 11 5 11 10 0 6 -2 10 -4 10 -3 0 -8 -4 -11 -10z"/>
    <path fill="#1078E0" d="M5123 1375 c-3 -9 -3 -18 -1 -21 3 -3 8 4 11 16 6 23 -1 27 -10 5z"/>
    <path fill="#1078E0" d="M5541 1374 c0 -11 3 -14 6 -6 3 7 2 16 -1 19 -3 4 -6 -2 -5 -13z"/>
    <path fill="#1078E0" d="M11311 1380 c0 -8 6 -28 14 -45 17 -39 18 -21 0 25 -7 19 -14 28 -14 20z"/>
    <path fill="#1078E0" d="M11610 1387 c0 -18 31 -64 67 -99 43 -42 115 -78 153 -77 18 1 15 3 -13 10 -70 16 -164 79 -151 101 3 4 -2 11 -11 14 -8 4 -22 18 -30 33 -8 14 -14 22 -15 18z"/>
    <path fill="#1078E0" d="M1450 1370 c-8 -5 -10 -10 -5 -10 6 0 17 5 25 10 8 5 11 10 5 10 -5 0 -17 -5 -25 -10z"/>
    <path fill="#1078E0" d="M4821 1310 c0 -41 4 -84 8 -95 4 -11 6 18 4 65 -6 110 -11 125 -12 30z"/>
    <path fill="#1078E0" d="M5520 1380 c-1 -3 -3 -23 -4 -44 -1 -32 -9 -46 -46 -79 -25 -22 -36 -35 -25 -29 54 28 99 99 86 134 -6 13 -10 21 -11 18z"/>
    <path fill="#1078E0" d="M8014 1355 c-9 -19 -9 -27 2 -36 8 -6 14 -8 14 -3 1 5 12 -12 26 -38 13 -27 27 -48 29 -48 3 0 -4 19 -16 42 -12 23 -26 57 -33 74 l-11 33 -11 -24z m13 -27 c-3 -8 -6 -5 -6 6 -1 11 2 17 5 13 3 -3 4 -12 1 -19z"/>
    <path fill="#1078E0" d="M1398 1361 c10 -6 5 -12 -18 -21 -17 -7 -29 -15 -27 -17 3 -2 21 4 41 13 25 12 32 20 24 26 -7 4 -17 8 -23 8 -5 0 -4 -4 3 -9z"/>
    <path fill="#1078E0" d="M5140 1360 c0 -5 5 -10 10 -10 6 0 10 5 10 10 0 6 -4 10 -10 10 -5 0 -10 -4 -10 -10z"/>
    <path fill="#1078E0" d="M6662 1350 c-6 -10 -8 -21 -3 -24 5 -3 11 4 14 16 8 29 4 32 -11 8z"/>
    <path fill="#1078E0" d="M9211 1333 c2 -36 2 -36 8 -8 4 27 6 24 12 -20 l6 -50 -1 54 c-1 34 -6 56 -13 59 -9 2 -13 -8 -12 -35z"/>
    <path fill="#1078E0" d="M9560 1359 c0 -5 5 -7 10 -4 6 3 10 8 10 11 0 2 -4 4 -10 4 -5 0 -10 -5 -10 -11z"/>
    <path fill="#1078E0" d="M9931 1354 c0 -11 3 -14 6 -6 3 7 2 16 -1 19 -3 4 -6 -2 -5 -13z"/>
    <path fill="#1078E0" d="M8801 1330 c-12 -17 -26 -28 -30 -26 -4 3 -8 -2 -8 -10 0 -16 42 18 58 49 15 26 5 20 -20 -13z"/>
    <path fill="#1078E0" d="M9531 1325 c-1 -36 28 -105 44 -105 3 0 -2 12 -12 27 -10 14 -20 47 -24 72 l-6 46 -2 -40z"/>
    <path fill="#1078E0" d="M12126 1331 c-9 -16 -29 -40 -46 -55 -32 -27 -57 -35 -44 -14 4 7 3 8 -5 4 -6 -4 -8 -12 -5 -18 4 -6 -1 -8 -15 -3 -14 4 -23 1 -27 -9 -3 -9 -18 -17 -33 -17 -22 -2 -23 -2 -4 -6 34 -7 119 36 158 78 19 22 35 43 35 48 0 5 8 12 18 14 16 4 16 5 0 6 -10 0 -24 -12 -32 -28z"/>
    <path fill="#1078E0" d="M4803 1305 c0 -27 2 -38 4 -22 2 15 2 37 0 50 -2 12 -4 0 -4 -28z"/>
    <path fill="#1078E0" d="M7471 1336 c-7 -8 -21 -12 -31 -9 -21 6 -28 -13 -8 -19 7 -3 -8 -16 -32 -31 -25 -15 -40 -27 -34 -27 14 0 83 50 108 79 11 11 17 21 14 21 -3 0 -11 -6 -17 -14z"/>
    <path fill="#1078E0" d="M12223 1324 c27 -14 51 -23 54 -21 5 5 -83 47 -96 47 -3 -1 16 -12 42 -26z"/>
    <path fill="#1078E0" d="M5115 1310 c11 -73 75 -121 155 -118 l45 2 -48 3 c-26 2 -45 8 -42 13 3 4 -2 11 -11 14 -8 3 -12 2 -9 -4 11 -17 -11 -11 -39 11 -14 11 -33 41 -41 67 -13 39 -14 41 -10 12z"/>
    <path fill="#1078E0" d="M7020 1326 c0 -2 8 -10 18 -17 15 -13 16 -12 3 4 -13 16 -21 21 -21 13z"/>
    <path fill="#1078E0" d="M1295 1308 c-5 -5 -19 -16 -30 -24 -15 -11 -11 -11 15 2 43 20 43 21 33 27 -4 2 -12 0 -18 -5z"/>
    <path fill="#1078E0" d="M6685 1290 c-4 -12 -4 -24 -1 -27 3 -4 6 2 6 12 0 18 1 18 16 -1 14 -18 14 -18 3 6 -16 34 -16 34 -24 10z"/>
    <path fill="#1078E0" d="M9896 1268 c-37 -39 -33 -44 7 -9 16 14 43 53 35 50 -2 0 -21 -19 -42 -41z"/>
    <path fill="#1078E0" d="M5145 1290 c-3 -5 -1 -10 4 -10 6 0 11 5 11 10 0 6 -2 10 -4 10 -3 0 -8 -4 -11 -10z"/>
    <path fill="#1078E0" d="M7064 1291 c13 -21 108 -61 141 -60 26 2 27 2 5 6 -49 7 -110 35 -104 45 4 7 2 8 -5 4 -6 -4 -19 -2 -28 6 -14 11 -16 11 -9 -1z"/>
    <path fill="#1078E0" d="M7781 1273 c-10 -26 -10 -27 4 -9 8 11 15 23 15 28 0 15 -7 8 -19 -19z"/>
    <path fill="#1078E0" d="M9552 1289 c3 -8 8 -13 11 -11 9 3 7 11 -5 18 -6 4 -8 0 -6 -7z"/>
    <path fill="#1078E0" d="M11340 1297 c0 -5 5 -17 10 -28 8 -14 7 -19 -1 -19 -8 0 -8 -4 1 -15 7 -9 15 -13 18 -11 2 3 12 -3 21 -12 9 -10 13 -13 9 -7 -3 5 -18 30 -32 55 -14 25 -26 41 -26 37z"/>
    <path fill="#1078E0" d="M6370 1279 c0 -19 41 -59 61 -59 8 0 3 6 -11 13 -13 7 -30 24 -37 37 -8 15 -13 19 -13 9z"/>
    <path fill="#1078E0" d="M8728 1283 c6 -2 9 -10 6 -15 -4 -7 -2 -8 5 -4 13 9 5 26 -12 25 -9 0 -8 -2 1 -6z"/>
    <path fill="#1078E0" d="M8444 1266 c11 -9 24 -16 30 -16 12 0 7 5 -24 19 -24 11 -24 11 -6 -3z"/>
    <path fill="#1078E0" d="M9201 1264 c0 -11 3 -14 6 -6 3 7 2 16 -1 19 -3 4 -6 -2 -5 -13z"/>
    <path fill="#1078E0" d="M12353 1264 c21 -11 27 -21 24 -35 -3 -10 -1 -17 4 -13 18 11 8 41 -16 52 -37 17 -45 14 -12 -4z"/>
    <path fill="#1078E0" d="M8690 1250 c-8 -5 -10 -10 -5 -10 6 0 17 5 25 10 8 5 11 10 5 10 -5 0 -17 -5 -25 -10z"/>
    <path fill="#1078E0" d="M7280 1240 l-45 -7 40 -1 c22 0 49 3 60 8 23 10 9 10 -55 0z"/>
    <path fill="#1078E0" d="M8558 1233 c23 -2 59 -2 80 0 20 2 1 4 -43 4 -44 0 -61 -2 -37 -4z"/>
    <path fill="#1078E0" d="M9241 1224 c0 -11 3 -14 6 -6 3 7 2 16 -1 19 -3 4 -6 -2 -5 -13z"/>
    <path fill="#1078E0" d="M5390 1220 c12 -8 12 -10 1 -10 -8 0 -12 -2 -9 -5 3 -3 13 -2 22 1 14 5 15 9 4 15 -7 5 -17 9 -23 9 -5 0 -3 -5 5 -10z"/>
    <path fill="#1078E0" d="M6051 1220 c0 -8 4 -22 9 -30 12 -18 12 -2 0 25 -6 13 -9 15 -9 5z"/>
    <path fill="#1078E0" d="M6508 1223 c21 -4 22 -8 22 -123 0 -86 -3 -120 -12 -123 -8 -2 -7 -3 2 -3 12 1 15 24 18 129 l3 127 -28 -1 c-24 -2 -25 -2 -5 -6z"/>
    <path fill="#1078E0" d="M9830 1220 c-9 -6 -10 -10 -3 -10 6 0 15 5 18 10 8 12 4 12 -15 0z"/>
    <path fill="#1078E0" d="M9597 1209 c7 -7 15 -10 18 -7 3 3 -2 9 -12 12 -14 6 -15 5 -6 -5z"/>
    <path fill="#1078E0" d="M6550 1140 c0 -40 2 -71 4 -69 7 7 10 129 3 136 -4 3 -7 -27 -7 -67z"/>
    <path fill="#1078E0" d="M7680 1141 c-36 -37 -76 -75 -90 -85 -24 -17 -24 -17 5 0 17 9 43 28 58 43 16 14 30 25 33 24 2 -2 4 0 5 5 0 4 8 16 18 27 65 76 50 68 -29 -14z"/>
    <path fill="#1078E0" d="M9688 1203 c7 -3 16 -2 19 1 4 3 -2 6 -13 5 -11 0 -14 -3 -6 -6z"/>
    <path fill="#1078E0" d="M5333 1193 c9 -2 23 -2 30 0 6 3 -1 5 -18 5 -16 0 -22 -2 -12 -5z"/>
    <path fill="#1078E0" d="M6081 1184 c0 -11 3 -14 6 -6 3 7 2 16 -1 19 -3 4 -6 -2 -5 -13z"/>
    <path fill="#1078E0" d="M9638 1193 c6 -2 18 -2 25 0 6 3 1 5 -13 5 -14 0 -19 -2 -12 -5z"/>
    <path fill="#1078E0" d="M9748 1193 c6 -2 18 -2 25 0 6 3 1 5 -13 5 -14 0 -19 -2 -12 -5z"/>
    <path fill="#1078E0" d="M12340 1168 c-15 -21 -17 -28 -6 -19 16 13 41 51 33 51 -2 0 -14 -15 -27 -32z"/>
    <path fill="#1078E0" d="M6810 1136 c30 -31 70 -66 88 -77 17 -12 30 -25 27 -30 -4 -5 2 -6 11 -2 12 4 15 3 10 -5 -5 -8 -1 -10 10 -5 10 3 15 2 12 -3 -4 -5 6 -10 20 -11 19 -1 11 7 -33 30 -33 18 -91 61 -130 97 l-70 64 55 -58z"/>
    <path fill="#1078E0" d="M8125 1170 c10 -11 20 -20 23 -20 3 0 -3 9 -13 20 -10 11 -20 20 -23 20 -3 0 3 -9 13 -20z"/>
    <path fill="#1078E0" d="M11429 1156 c17 -18 19 -25 9 -30 -9 -4 -8 -5 2 -2 8 2 31 -10 50 -28 19 -17 10 -5 -20 27 -30 31 -56 57 -59 57 -2 0 6 -11 18 -24z"/>
    <path fill="#1078E0" d="M6095 1138 c3 -17 1 -28 -5 -28 -6 0 -8 -5 -4 -11 12 -21 25 17 14 43 -10 22 -10 22 -5 -4z"/>
    <path fill="#1078E0" d="M8150 1136 c0 -2 8 -10 18 -17 15 -13 16 -12 3 4 -13 16 -21 21 -21 13z"/>
    <path fill="#1078E0" d="M9284 1122 c4 -7 2 -12 -5 -12 -8 0 -8 -4 1 -15 7 -8 16 -13 20 -10 8 5 28 -14 29 -27 1 -5 2 -7 4 -5 2 1 16 -6 32 -16 19 -12 13 -4 -15 21 -25 22 -49 37 -54 34 -5 -3 -7 2 -3 11 3 9 1 19 -5 23 -7 4 -8 3 -4 -4z"/>
    <path fill="#1078E0" d="M12265 1089 c-52 -43 -103 -72 -164 -94 -20 -8 -29 -14 -20 -14 27 -1 151 67 199 109 59 51 49 51 -15 -1z"/>
    <path fill="#1078E0" d="M4870 1116 c0 -2 8 -10 18 -17 15 -13 16 -12 3 4 -13 16 -21 21 -21 13z"/>
    <path fill="#1078E0" d="M5515 1076 c-22 -23 -36 -38 -31 -34 5 3 15 4 23 1 7 -3 13 -1 11 3 -5 14 38 64 47 56 5 -4 5 -1 1 6 -9 15 -3 18 -51 -32z"/>
    <path fill="#1078E0" d="M9935 1078 l-40 -43 38 34 37 35 0 -58 c0 -50 3 -59 21 -63 16 -4 17 -8 7 -14 -7 -5 43 -8 117 -7 l130 2 -110 6 -110 6 118 2 c64 1 117 5 117 10 0 4 -63 6 -140 4 l-139 -3 -3 66 -3 66 -40 -43z"/>
    <path fill="#1078E0" d="M8209 1088 c24 -27 149 -98 172 -98 7 0 -18 15 -56 33 -39 19 -86 47 -105 62 -34 28 -34 28 -11 3z"/>
    <path fill="#1078E0" d="M5860 1052 c0 -29 4 -52 9 -52 8 0 3 90 -5 99 -2 2 -4 -19 -4 -47z"/>
    <path fill="#1078E0" d="M6118 1085 c6 -11 25 -33 44 -50 l33 -30 -35 40 c-19 22 -39 45 -44 50 -5 6 -4 1 2 -10z"/>
    <path fill="#1078E0" d="M4907 1069 c7 -9 9 -20 5 -24 -4 -5 -1 -5 6 -1 7 5 21 2 30 -6 20 -18 42 -31 42 -25 0 2 -21 19 -47 37 -27 19 -42 27 -36 19z"/>
    <path fill="#1078E0" d="M11563 1042 c4 -4 24 -17 46 -27 22 -10 39 -21 37 -24 -2 -3 12 -7 33 -8 l36 -1 -36 13 c-19 7 -54 22 -78 35 -24 12 -41 17 -38 12z"/>
    <path fill="#1078E0" d="M9873 1029 c-5 -5 -37 -21 -69 -35 -32 -14 -45 -22 -29 -18 17 4 38 7 47 8 9 0 15 3 12 7 -2 4 4 10 15 14 11 3 25 12 31 20 14 17 9 20 -7 4z"/>
    <path fill="#1078E0" d="M5410 1005 c-25 -13 -41 -24 -37 -25 11 0 87 39 87 45 0 7 0 7 -50 -20z"/>
    <path fill="#1078E0" d="M7520 1020 c-9 -6 -10 -10 -3 -10 6 0 15 5 18 10 8 12 4 12 -15 0z"/>
    <path fill="#1078E0" d="M9412 1007 c10 -8 15 -17 11 -21 -4 -4 1 -4 10 0 20 7 20 7 -13 23 -22 11 -23 10 -8 -2z"/>
    <path fill="#1078E0" d="M6214 996 c11 -9 24 -16 30 -16 12 0 7 5 -24 19 -24 11 -24 11 -6 -3z"/>
    <path fill="#1078E0" d="M7450 995 c-19 -7 -28 -14 -20 -14 8 0 29 6 45 14 39 17 21 18 -25 0z"/>
    <path fill="#1078E0" d="M5030 990 c8 -5 20 -10 25 -10 6 0 3 5 -5 10 -8 5 -19 10 -25 10 -5 0 -3 -5 5 -10z"/>
    <path fill="#1078E0" d="M9470 980 c8 -5 22 -9 30 -9 10 0 8 3 -5 9 -27 12 -43 12 -25 0z"/>
    <path fill="#1078E0" d="M5085 970 c19 -8 73 -14 64 -6 -2 2 -22 6 -44 9 -28 5 -34 4 -20 -3z"/>
    <path fill="#1078E0" d="M5300 970 c-34 -7 -34 -7 -5 -8 17 0 39 3 50 8 24 10 4 10 -45 0z"/>
    <path fill="#1078E0" d="M6271 969 c13 -8 88 -14 78 -5 -2 2 -24 6 -48 9 -29 4 -40 2 -30 -4z"/>
    <path fill="#1078E0" d="M7088 973 c6 -2 18 -2 25 0 6 3 1 5 -13 5 -14 0 -19 -2 -12 -5z"/>
    <path fill="#1078E0" d="M7388 973 c7 -3 16 -2 19 1 4 3 -2 6 -13 5 -11 0 -14 -3 -6 -6z"/>
    <path fill="#1078E0" d="M8438 973 c7 -3 16 -2 19 1 4 3 -2 6 -13 5 -11 0 -14 -3 -6 -6z"/>
    <path fill="#1078E0" d="M8738 973 c7 -3 16 -2 19 1 4 3 -2 6 -13 5 -11 0 -14 -3 -6 -6z"/>
    <path fill="#1078E0" d="M11728 973 c7 -3 16 -2 19 1 4 3 -2 6 -13 5 -11 0 -14 -3 -6 -6z"/>
    <path fill="#1078E0" d="M11995 970 c-27 -7 -27 -8 -5 -8 14 0 36 4 50 8 20 6 21 8 5 8 -11 0 -33 -4 -50 -8z"/>
    <path fill="#1078E0" d="M6433 963 c9 -2 25 -2 35 0 9 3 1 5 -18 5 -19 0 -27 -2 -17 -5z"/>
    <path fill="#1078E0" d="M7143 963 c9 -2 23 -2 30 0 6 3 -1 5 -18 5 -16 0 -22 -2 -12 -5z"/>
    <path fill="#1078E0" d="M7323 963 c9 -2 25 -2 35 0 9 3 1 5 -18 5 -19 0 -27 -2 -17 -5z"/>
    <path fill="#1078E0" d="M8493 963 c9 -2 23 -2 30 0 6 3 -1 5 -18 5 -16 0 -22 -2 -12 -5z"/>
    <path fill="#1078E0" d="M8673 963 c9 -2 23 -2 30 0 6 3 -1 5 -18 5 -16 0 -22 -2 -12 -5z"/>
    <path fill="#1078E0" d="M9533 963 c9 -2 23 -2 30 0 6 3 -1 5 -18 5 -16 0 -22 -2 -12 -5z"/>
    <path fill="#1078E0" d="M9693 963 c9 -2 25 -2 35 0 9 3 1 5 -18 5 -19 0 -27 -2 -17 -5z"/>
    <path fill="#1078E0" d="M10582 963 c37 -2 100 -2 140 0 40 1 10 3 -67 3 -77 0 -110 -1 -73 -3z"/>
    <path fill="#1078E0" d="M11773 963 c9 -2 23 -2 30 0 6 3 -1 5 -18 5 -16 0 -22 -2 -12 -5z"/>
    <path fill="#1078E0" d="M5198 953 c12 -2 30 -2 40 0 9 3 -1 5 -23 4 -22 0 -30 -2 -17 -4z"/>
    <path fill="#1078E0" d="M7223 953 c15 -2 37 -2 50 0 12 2 0 4 -28 4 -27 0 -38 -2 -22 -4z"/>
    <path fill="#1078E0" d="M8568 953 c12 -2 32 -2 45 0 12 2 2 4 -23 4 -25 0 -35 -2 -22 -4z"/>
    <path fill="#1078E0" d="M9593 953 c9 -2 23 -2 30 0 6 3 -1 5 -18 5 -16 0 -22 -2 -12 -5z"/>
    <path fill="#1078E0" d="M11805 950 c-17 -4 5 -5 50 -2 44 2 82 6 84 8 8 7 -104 2 -134 -6z"/>
    <path fill="#1078E0" d="M5138 943 c7 -3 16 -2 19 1 4 3 -2 6 -13 5 -11 0 -14 -3 -6 -6z"/>
    <path fill="#1078E0" d="M5278 943 c7 -3 16 -2 19 1 4 3 -2 6 -13 5 -11 0 -14 -3 -6 -6z"/>
    <path fill="#1078E0" d="M6318 943 c6 -2 18 -2 25 0 6 3 1 5 -13 5 -14 0 -19 -2 -12 -5z"/>
    <path fill="#1078E0" d="M6428 943 c6 -2 18 -2 25 0 6 3 1 5 -13 5 -14 0 -19 -2 -12 -5z"/>
    <path fill="#1078E0" d="M7313 943 c9 -2 23 -2 30 0 6 3 -1 5 -18 5 -16 0 -22 -2 -12 -5z"/>
    <path fill="#1078E0" d="M8508 943 c7 -3 16 -2 19 1 4 3 -2 6 -13 5 -11 0 -14 -3 -6 -6z"/>
    <path fill="#1078E0" d="M8658 943 c6 -2 18 -2 25 0 6 3 1 5 -13 5 -14 0 -19 -2 -12 -5z"/>
    <path fill="#1078E0" d="M9548 943 c7 -3 16 -2 19 1 4 3 -2 6 -13 5 -11 0 -14 -3 -6 -6z"/>
    <path fill="#1078E0" d="M9688 943 c6 -2 18 -2 25 0 6 3 1 5 -13 5 -14 0 -19 -2 -12 -5z"/>
    <path fill="#1078E0" d="M11968 943 c6 -2 18 -2 25 0 6 3 1 5 -13 5 -14 0 -19 -2 -12 -5z"/>
    <path fill="#1078E0" d="M82 780 c0 -14 2 -19 5 -12 2 6 2 18 0 25 -3 6 -5 1 -5 -13z"/>
    <path fill="#1078E0" d="M1800 770 c-44 -7 -44 -7 -9 -8 20 -1 52 -4 70 -7 26 -4 29 -3 14 4 -15 7 -6 10 40 13 l60 4 -65 1 c-36 0 -85 -3 -110 -7z"/>
    <path fill="#1078E0" d="M1993 763 c9 -2 25 -2 35 0 9 3 1 5 -18 5 -19 0 -27 -2 -17 -5z"/>
    <path fill="#1078E0" d="M54 746 c-3 -8 -4 -23 -1 -33 3 -12 6 -8 8 12 1 19 5 7 9 -30 l7 -60 1 57 c2 55 -12 86 -24 54z"/>
    <path fill="#1078E0" d="M1718 753 c6 -2 18 -2 25 0 6 3 1 5 -13 5 -14 0 -19 -2 -12 -5z"/>
    <path fill="#1078E0" d="M2135 737 c136 -38 239 -78 223 -89 -9 -7 -7 -8 8 -3 26 7 52 -4 307 -128 117 -57 202 -104 196 -108 -11 -7 16 -20 51 -24 8 -2 24 -6 35 -10 119 -43 -438 233 -595 295 -124 48 -261 91 -290 89 -8 0 21 -10 65 -22z m770 -337 c3 -6 -1 -7 -9 -4 -18 7 -21 14 -7 14 6 0 13 -4 16 -10z"/>
    <path fill="#1078E0" d="M1678 743 c7 -3 16 -2 19 1 4 3 -2 6 -13 5 -11 0 -14 -3 -6 -6z"/>
    <path fill="#1078E0" d="M1768 743 c6 -2 18 -2 25 0 6 3 1 5 -13 5 -14 0 -19 -2 -12 -5z"/>
    <path fill="#1078E0" d="M2008 743 c6 -2 18 -2 25 0 6 3 1 5 -13 5 -14 0 -19 -2 -12 -5z"/>
    <path fill="#1078E0" d="M3708 730 c-14 -54 -17 -90 -7 -90 15 0 21 23 17 71 -3 36 -5 39 -10 19z"/>
    <path fill="#1078E0" d="M1590 710 c8 -5 20 -10 25 -10 6 0 3 5 -5 10 -8 5 -19 10 -25 10 -5 0 -3 -5 5 -10z"/>
    <path fill="#1078E0" d="M1525 695 c-25 -12 -26 -14 -5 -9 28 7 60 23 45 23 -5 0 -23 -6 -40 -14z"/>
    <path fill="#1078E0" d="M1385 635 c-102 -50 -108 -60 -9 -15 37 16 71 27 78 23 6 -3 7 -2 3 2 -4 5 3 15 15 22 52 29 -3 8 -87 -32z"/>
    <path fill="#1078E0" d="M41 644 c0 -11 3 -14 6 -6 3 7 2 16 -1 19 -3 4 -6 -2 -5 -13z"/>
    <path fill="#1078E0" d="M85 588 c3 -21 1 -39 -5 -43 -8 -5 -8 -11 1 -21 6 -7 15 -12 19 -9 5 3 12 -4 15 -15 4 -12 34 -50 67 -86 33 -35 56 -64 52 -64 -5 0 -1 -7 9 -15 11 -7 26 -11 35 -8 8 4 13 2 9 -3 -3 -5 2 -10 11 -10 9 -1 26 -4 37 -8 11 -4 -5 6 -35 24 -102 57 -167 135 -202 238 -14 43 -17 48 -13 20z m180 -248 c3 -6 -1 -7 -9 -4 -18 7 -21 14 -7 14 6 0 13 -4 16 -10z"/>
    <path fill="#1078E0" d="M1251 571 c-27 -14 -30 -19 -17 -24 10 -4 15 -3 11 3 -3 6 -2 10 2 10 5 0 18 7 29 15 26 19 16 18 -25 -4z"/>
    <path fill="#1078E0" d="M1170 530 c-19 -11 -31 -19 -27 -20 11 0 67 29 67 35 0 7 -1 7 -40 -15z"/>
    <path fill="#1078E0" d="M958 424 c-71 -35 -128 -66 -128 -69 0 -3 32 11 70 30 39 20 76 33 82 29 7 -5 8 -2 3 6 -6 10 -4 12 9 7 9 -4 15 -3 12 2 -3 4 13 16 35 26 22 10 42 22 45 27 7 11 12 13 -128 -58z"/>
    <path fill="#1078E0" d="M786 335 c-18 -13 -18 -14 2 -12 11 0 19 4 16 8 -2 4 2 10 8 12 7 3 9 6 3 6 -5 0 -18 -6 -29 -14z"/>
    <path fill="#1078E0" d="M368 293 c7 -3 16 -2 19 1 4 3 -2 6 -13 5 -11 0 -14 -3 -6 -6z"/>
    <path fill="#1078E0" d="M661 296 c2 -2 18 -6 34 -10 22 -5 26 -4 15 4 -14 9 -59 15 -49 6z"/>
    <path fill="#1078E0" d="M408 283 c6 -2 18 -2 25 0 6 3 1 5 -13 5 -14 0 -19 -2 -12 -5z"/>
    <path fill="#1078E0" d="M603 283 c9 -2 25 -2 35 0 9 3 1 5 -18 5 -19 0 -27 -2 -17 -5z"/>
    <path fill="#1078E0" d="M450 271 c-19 -4 14 -6 74 -6 61 0 97 3 80 6 -37 8 -109 8 -154 0z"/>
    <path fill="#003CDC" d="M1818 3783 c7 -3 16 -2 19 1 4 3 -2 6 -13 5 -11 0 -14 -3 -6 -6z"/>
    <path fill="#003CDC" d="M1562 3652 c-57 -58 -215 -350 -206 -379 4 -13 3 -15 -4 -5 -7 11 -11 10 -16 -5 -8 -21 -801 -1584 -966 -1903 -61 -118 -150 -293 -198 -389 l-87 -174 0 -101 c1 -129 24 -192 100 -275 51 -54 165 -128 178 -115 3 3 11 2 18 -2 18 -11 94 -5 138 10 20 8 51 11 69 8 25 -3 37 0 47 14 17 25 12 29 -17 13 -29 -15 -24 -10 35 35 26 20 54 36 62 36 9 0 33 9 55 20 33 17 39 24 38 52 0 18 3 46 7 62 6 23 5 27 -5 21 -10 -6 -12 -4 -7 9 4 10 7 21 7 26 0 4 16 4 35 0 30 -7 35 -5 35 10 0 11 -4 22 -10 25 -17 10 -11 23 17 37 14 7 31 22 37 33 6 11 17 24 24 28 6 4 12 14 12 21 0 8 7 16 15 20 8 3 15 12 15 19 0 7 11 20 25 27 14 7 25 19 25 26 0 6 7 15 16 18 14 5 13 9 -7 24 -22 18 -22 19 -3 33 25 19 44 53 44 80 0 18 4 21 28 16 15 -2 36 -2 46 2 18 7 18 8 2 14 -23 9 -11 27 20 27 20 0 24 -5 23 -27 0 -24 -2 -25 -8 -9 -7 19 -8 19 -13 -1 -6 -21 12 -43 45 -56 16 -6 18 -1 13 54 -6 61 -6 61 13 40 14 -16 17 -31 13 -68 -5 -43 -4 -46 17 -40 17 4 21 1 21 -19 0 -14 6 -24 15 -24 9 0 12 6 8 18 -4 10 4 6 21 -11 23 -25 32 -28 66 -23 22 3 40 1 40 -4 0 -4 6 -10 13 -13 6 -2 0 -2 -15 0 -20 3 -28 0 -28 -11 0 -8 -8 -20 -17 -26 -13 -7 0 -9 50 -5 58 4 68 2 63 -10 -3 -8 0 -14 7 -12 7 1 11 -8 11 -21 -2 -25 11 -33 83 -49 28 -7 40 -7 36 0 -4 6 4 7 21 3 20 -5 26 -4 20 5 -5 9 2 11 27 6 29 -5 31 -4 12 5 -19 9 -20 13 -10 32 7 11 13 23 14 25 1 2 21 -6 45 -17 26 -12 95 -27 172 -37 235 -31 388 -87 825 -305 163 -82 320 -155 350 -164 153 -45 327 4 433 122 98 108 126 250 81 397 -15 49 -58 135 -368 735 -84 162 -198 386 -253 497 -94 187 -152 293 -138 250 5 -15 2 -17 -17 -12 -12 4 -26 13 -32 19 -5 7 -15 11 -22 9 -21 -7 -23 16 -3 30 12 8 20 18 19 23 -4 23 2 26 16 8 9 -10 3 7 -12 38 -15 32 -29 56 -31 54 -2 -3 1 -13 7 -25 9 -17 8 -22 -9 -31 -11 -6 -25 -8 -31 -5 -15 10 -39 -14 -32 -33 5 -14 4 -15 -8 -6 -8 6 -40 9 -71 8 -46 -3 -58 0 -61 14 -4 13 -5 14 -6 2 0 -9 -14 -23 -30 -33 -32 -19 -45 -22 -37 -8 3 4 -8 8 -24 7 -26 -1 -30 -5 -30 -28 0 -25 -2 -26 -29 -18 -23 6 -31 5 -33 -7 -2 -12 -9 -9 -32 10 -25 22 -33 24 -58 15 -24 -9 -29 -15 -25 -34 2 -13 0 -24 -4 -24 -5 0 -9 11 -9 25 0 21 -2 24 -14 13 -20 -19 -14 -52 13 -64 l24 -11 -26 -5 c-15 -3 -24 -1 -21 3 3 5 -2 9 -10 9 -9 0 -14 -8 -13 -20 1 -11 6 -19 12 -16 6 2 10 -8 9 -22 0 -14 6 -38 13 -54 14 -27 11 -48 -7 -48 -6 0 -23 27 -40 60 -17 33 -32 60 -35 60 -3 0 21 -52 52 -115 38 -76 60 -110 66 -102 5 8 6 5 3 -8 -3 -13 55 -139 167 -362 95 -189 169 -343 164 -343 -4 0 -21 6 -36 14 -55 29 -262 95 -373 120 -136 30 -321 49 -397 41 -101 -10 -202 -28 -207 -36 -2 -4 -11 -6 -19 -2 -8 3 -15 0 -15 -7 0 -7 -7 -10 -15 -6 -8 3 -15 2 -15 -3 0 -5 -12 -8 -27 -8 -15 0 -29 -5 -31 -11 -2 -6 -10 -8 -18 -5 -8 3 -14 0 -14 -7 0 -6 -4 -8 -10 -5 -5 3 -10 1 -10 -5 0 -7 -7 -9 -16 -6 -10 4 -13 2 -8 -6 5 -8 2 -9 -9 -5 -10 3 -17 2 -17 -4 0 -6 -4 -7 -10 -4 -5 3 -10 2 -10 -3 0 -5 -11 -15 -25 -22 -13 -7 -22 -17 -19 -22 8 -13 -26 -37 -51 -37 -19 -1 -18 1 4 18 18 14 21 20 11 26 -9 6 -11 4 -5 -5 6 -10 4 -12 -9 -7 -11 5 -15 3 -10 -5 5 -8 2 -9 -10 -5 -11 5 -15 3 -10 -5 5 -8 2 -9 -10 -5 -10 4 -15 3 -11 -3 3 -6 1 -10 -4 -10 -20 0 -26 -3 -37 -18 -7 -9 -16 -12 -24 -7 -9 5 -11 4 -6 -3 7 -11 -6 -17 -27 -13 -5 1 -6 -3 -3 -8 6 -9 -22 -26 -37 -23 -4 1 -6 -1 -5 -5 2 -9 -67 -83 -77 -83 -4 0 -4 11 -1 24 7 29 222 478 370 775 59 117 105 220 102 228 -3 8 -1 11 4 8 12 -8 33 43 24 57 -4 6 -3 8 3 5 13 -8 36 41 27 55 -4 6 -3 8 3 5 13 -8 36 41 27 55 -4 6 -3 8 2 5 13 -7 127 221 118 235 -4 6 -3 8 3 5 13 -8 36 41 27 55 -5 7 -2 8 6 3 10 -6 12 -4 7 9 -4 9 -3 15 2 12 11 -7 23 22 14 36 -3 6 -2 8 4 5 14 -9 64 87 57 109 -4 13 -3 15 3 6 7 -9 12 -6 21 13 15 33 5 53 -154 304 -125 195 -154 259 -154 336 0 66 28 155 65 205 29 40 32 49 19 54 -10 4 -31 -10 -62 -42z m-11 -60 c-6 -2 -11 -10 -11 -18 0 -8 -4 -14 -9 -14 -21 0 -20 19 2 46 20 25 22 26 26 9 2 -11 -2 -21 -8 -23z m130 -1099 c-12 -20 -14 -14 -5 12 4 9 9 14 11 11 3 -2 0 -13 -6 -23z m-43 -88 c-13 -27 -26 -41 -31 -36 -6 6 2 23 19 45 16 20 30 36 31 36 2 0 -7 -20 -19 -45z m672 -354 c0 -3 -4 -12 -8 -19 -6 -9 -12 -6 -20 12 -9 21 -8 23 9 19 10 -3 19 -8 19 -12z m-1126 -865 c-19 -15 -54 -27 -54 -20 0 2 14 13 32 24 35 21 53 18 22 -4z m-77 -57 c-9 -6 -17 -17 -17 -24 0 -8 -8 -15 -17 -15 -13 0 -11 6 12 30 16 16 31 27 34 24 3 -3 -2 -10 -12 -15z m120 -121 c-3 -8 -6 -5 -6 6 -1 11 2 17 5 13 3 -3 4 -12 1 -19z m228 -138 c3 -5 1 -10 -4 -10 -6 0 -11 5 -11 10 0 6 2 10 4 10 3 0 8 -4 11 -10z"/>
    <path fill="#003CDC" d="M3485 2826 c-56 -57 -48 -55 18 4 23 20 56 64 45 59 -2 -1 -30 -29 -63 -63z"/>
    <path fill="#003CDC" d="M4007 2749 c7 -7 15 -10 18 -7 3 3 -2 9 -12 12 -14 6 -15 5 -6 -5z"/>
    <path fill="#003CDC" d="M3790 2725 c13 -14 26 -25 28 -25 3 0 -5 11 -18 25 -13 14 -26 25 -28 25 -3 0 5 -11 18 -25z"/>
    <path fill="#003CDC" d="M3265 2700 c-27 -10 -42 -19 -32 -19 9 -1 17 -5 17 -10 0 -5 16 -12 35 -15 31 -6 35 -10 33 -34 -2 -20 3 -29 19 -37 40 -17 36 -35 -4 -19 -62 26 -45 9 25 -24 48 -23 60 -27 43 -12 -22 19 -20 25 4 20 39 -8 45 -7 45 5 0 7 -14 25 -31 39 -17 14 -28 30 -25 35 11 16 66 24 81 11 11 -9 15 -9 15 -1 0 6 12 16 27 22 22 8 24 12 13 19 -8 6 -27 10 -42 10 -15 0 -30 5 -33 10 -4 6 -13 7 -23 1 -20 -10 -79 -13 -106 -5 -15 5 -16 8 -5 15 22 14 -1 9 -56 -11z m15 -14 c0 -11 -19 -15 -25 -6 -3 5 1 10 9 10 9 0 16 -2 16 -4z"/>
    <path fill="#003CDC" d="M3163 2644 c-8 -21 15 -41 57 -48 l35 -5 -35 11 c-39 13 -52 27 -45 46 2 6 2 12 -1 12 -2 0 -7 -7 -11 -16z"/>
    <path fill="#003CDC" d="M3849 2599 l-24 -20 28 17 c15 9 27 18 27 20 0 8 -8 4 -31 -17z"/>
    <path fill="#003CDC" d="M2750 2591 c0 -6 4 -13 10 -16 6 -3 7 1 4 9 -7 18 -14 21 -14 7z"/>
    <path fill="#003CDC" d="M3589 2568 c21 -24 22 -28 7 -28 -22 0 -48 -25 -38 -36 4 -5 -1 -2 -11 5 -23 18 -72 24 -59 8 7 -8 6 -16 -3 -24 -10 -9 -18 -8 -36 4 -29 20 -18 8 41 -43 29 -25 36 -29 20 -10 l-25 28 38 -7 c30 -6 37 -4 37 9 0 9 8 16 19 16 10 0 22 7 25 16 6 15 9 15 33 -1 l26 -18 -20 29 c-12 16 -34 40 -50 54 l-28 25 24 -27z"/>
    <path fill="#003CDC" d="M3776 2540 c-20 -22 -36 -43 -36 -47 0 -4 3 -3 8 3 4 5 23 26 41 47 19 20 32 37 29 37 -3 0 -22 -18 -42 -40z"/>
    <path fill="#003CDC" d="M2050 2481 c0 -6 4 -13 10 -16 6 -3 7 1 4 9 -7 18 -14 21 -14 7z"/>
    <path fill="#003CDC" d="M3671 2448 c-1 -9 -12 -25 -26 -36 -35 -28 -31 -36 13 -29 20 3 31 3 24 0 -6 -2 -10 -9 -6 -14 3 -5 -2 -9 -10 -9 -21 0 -20 -30 2 -46 23 -18 30 -17 28 4 0 10 6 16 17 16 19 -2 23 26 7 42 -8 8 -6 15 5 24 19 16 19 37 0 37 -8 0 -15 -4 -15 -9 0 -16 -17 -7 -28 15 -8 16 -11 18 -11 5z m46 -84 c-3 -3 -12 -4 -19 -1 -8 3 -5 6 6 6 11 1 17 -2 13 -5z"/>
    <path fill="#003CDC" d="M3835 2370 c-4 -6 -10 -8 -14 -6 -3 3 -7 -4 -7 -15 0 -24 0 -24 20 6 9 14 14 25 12 25 -3 0 -8 -5 -11 -10z"/>
    <path fill="#003CDC" d="M3585 2319 c15 -30 28 -55 30 -57 1 -1 1 14 0 35 -2 27 -10 42 -30 56 l-27 20 27 -54z"/>
    <path fill="#003CDC" d="M3616 2361 c-4 -7 -5 -15 -2 -18 9 -9 19 4 14 18 -4 11 -6 11 -12 0z"/>
    <path fill="#003CDC" d="M13227 2346 c-14 -11 -347 -865 -347 -890 0 -4 39 -5 86 -4 l85 3 38 100 38 100 186 3 c215 3 190 16 237 -122 l27 -81 91 -3 c51 -1 92 -1 92 1 0 3 -39 104 -125 327 -31 82 -73 191 -172 450 l-48 125 -87 1 c-53 1 -93 -3 -101 -10z m158 -351 c32 -88 60 -165 62 -171 5 -14 -164 -26 -223 -16 l-41 7 49 135 c73 205 80 222 88 213 4 -4 33 -80 65 -168z"/>
    <path fill="#003CDC" d="M13907 2354 c-4 -4 -7 -209 -7 -456 l0 -448 90 0 90 0 0 453 0 453 -83 3 c-45 1 -86 -1 -90 -5z"/>
    <path fill="#003CDC" d="M2241 2303 c0 -16 3 -22 6 -13 3 8 10 21 16 28 7 8 5 12 -7 12 -11 0 -16 -8 -15 -27z"/>
    <path fill="#003CDC" d="M3665 2270 c-3 -6 -4 -18 -1 -28 3 -9 2 -23 -3 -31 -7 -11 -11 -10 -20 5 -15 26 -13 10 8 -71 18 -68 19 -70 52 -73 l34 -2 -31 16 c-24 11 -35 26 -42 57 -12 46 -9 57 16 57 17 -1 63 -30 47 -30 -5 0 -4 -5 2 -11 7 -7 10 -24 9 -38 -4 -31 -2 -26 29 74 12 41 19 72 14 69 -5 -3 -9 -12 -9 -20 0 -11 -8 -7 -27 11 -28 25 -67 33 -78 15z"/>
    <path fill="#003CDC" d="M10548 2143 c12 -2 32 -2 45 0 12 2 2 4 -23 4 -25 0 -35 -2 -22 -4z"/>
    <path fill="#003CDC" d="M10678 2143 c12 -2 32 -2 45 0 12 2 2 4 -23 4 -25 0 -35 -2 -22 -4z"/>
    <path fill="#003CDC" d="M9698 1183 c7 -3 16 -2 19 1 4 3 -2 6 -13 5 -11 0 -14 -3 -6 -6z"/>
    <path fill="#003CDC" d="M1102 999 c2 -7 10 -15 17 -17 8 -3 12 1 9 9 -2 7 -10 15 -17 17 -8 3 -12 -1 -9 -9z"/>
    <path fill="#003CDC" d="M5608 983 c6 -2 18 -2 25 0 6 3 1 5 -13 5 -14 0 -19 -2 -12 -5z"/>
    <path fill="#003CDC" d="M1818 773 c7 -3 16 -2 19 1 4 3 -2 6 -13 5 -11 0 -14 -3 -6 -6z"/>
    <path fill="#003CDC" d="M1405 705 c-34 -16 -30 -18 42 -19 50 -2 51 -1 33 16 -22 21 -34 21 -75 3z"/>
    <path fill="#003CDC" d="M890 610 c0 -6 7 -10 15 -10 8 0 15 2 15 4 0 2 -7 6 -15 10 -8 3 -15 1 -15 -4z"/>
    <path fill="#003CDC" d="M1230 612 c0 -5 7 -17 16 -28 15 -18 15 -18 5 3 -8 16 -8 23 2 26 7 3 5 6 -5 6 -10 1 -18 -3 -18 -7z"/>
    <path fill="#003CDC" d="M1018 503 c7 -3 16 -2 19 1 4 3 -2 6 -13 5 -11 0 -14 -3 -6 -6z"/>
  </g>
</svg>
